<?xml version="1.0" encoding="utf-8"?>
<!-- Generator: Adobe Illustrator 25.2.0, SVG Export Plug-In . SVG Version: 6.00 Build 0)  -->
<svg version="1.1" id="Layer_1" focusable="false" xmlns="http://www.w3.org/2000/svg" xmlns:xlink="http://www.w3.org/1999/xlink"
	 x="0px" y="0px" viewBox="0 0 512 512" style="enable-background:new 0 0 512 512;" xml:space="preserve">
<style type="text/css">
	.st0{fill:#F9F4F4;}
</style>
<path class="st0" d="M256,118c23.2,0,42,18.8,42,42s-18.8,42-42,42s-42-18.8-42-42S232.8,118,256,118z M312,372c0,6.6-5.4,12-12,12
	h-88c-6.6,0-12-5.4-12-12v-24c0-6.6,5.4-12,12-12h12v-64h-12c-6.6,0-12-5.4-12-12v-24c0-6.6,5.4-12,12-12h64c6.6,0,12,5.4,12,12v100
	h12c6.6,0,12,5.4,12,12V372z"/>
</svg>
