<?xml version="1.0" encoding="utf-8"?>
<!-- Generator: Adobe Illustrator 25.2.0, SVG Export Plug-In . SVG Version: 6.00 Build 0)  -->
<svg version="1.1" id="Layer_1" xmlns="http://www.w3.org/2000/svg" xmlns:xlink="http://www.w3.org/1999/xlink" x="0px" y="0px"
	 viewBox="0 0 44.7 37.1" style="enable-background:new 0 0 44.7 37.1;" xml:space="preserve">
<style type="text/css">
	.st0{fill:#E41E26;}
</style>
<g>
	<path class="st0" d="M3.7,33.5c-0.1-0.2-0.1-0.5-0.1-0.7s0-0.4,0.2-0.6c0-0.2,0.1-0.5,0.1-0.8C4,31.2,4,31,3.9,30.8
		c-0.2-0.2-0.3-0.2-0.5-0.2c-0.1,0.2-0.2,0.4-0.1,0.7c0,0.3,0,0.5,0,0.8c0,0.2-0.1,0.4-0.1,0.7C3,33,3,33.2,3,33.4
		c0,0.2,0,0.4,0.1,0.6c0.1,0.1,0.2,0.4,0.3,0.7c0.1,0.2,0.2,0.3,0.5,0.4c0.2,0.1,0.5,0.2,0.7,0.2c0.2,0,0.3,0,0.5,0
		c0.2-0.1,0.3-0.2,0.6-0.3c-0.4-0.2-0.7-0.4-1-0.6S4,33.8,3.7,33.5z"/>
	<path class="st0" d="M8.9,3c0.2,0,0.3,0,0.4-0.1s0.2-0.3,0.1-0.5C9.4,2.2,9.2,2.1,8.9,2.2c-0.3,0-0.5,0.1-0.6,0.3
		c0,0.2,0,0.3,0.2,0.4S8.8,3,8.9,3z"/>
	<path class="st0" d="M2.9,7C3,6.6,3,6.2,2.9,5.7C3.1,5.5,3.1,5.2,3,4.9C3,4.6,3,4.2,3.1,3.9c0.1-0.1,0.3-0.2,0.5-0.2S4,3.6,4.2,3.5
		c0.2,0,0.4,0,0.5,0c0.2,0,0.3,0,0.5,0c0.2,0,0.4,0.1,0.5,0.2c0.2,0.1,0.4,0.1,0.6,0c0.2,0,0.3-0.1,0.5-0.3C7,3.2,7.1,3,7.1,2.8
		C7,2.6,6.9,2.5,6.7,2.4C6.5,2.3,6.3,2.3,6.1,2.3C6,2.4,5.9,2.4,5.8,2.4c-0.1,0-0.2,0.1-0.4,0.1c-0.1,0-0.3,0-0.6,0
		c-0.1,0-0.2,0-0.3,0.1c-0.1,0-0.2,0-0.3,0.1c-0.1,0-0.2,0-0.3,0c-0.1,0-0.2,0-0.3,0c-0.1,0-0.2,0.1-0.2,0.1c-0.1,0-0.3,0.1-0.6,0.1
		c-0.1,0-0.2,0.1-0.3,0.1C2.4,3,2.3,3,2.3,3.1C2.1,3.5,2.1,4,2,4.6c0,0.6,0,1.2,0,1.7C2,6.6,2,7,2.1,7.4c0,0.5,0.1,0.8,0.3,0.9
		c0.1,0.1,0.3,0.2,0.4,0.1C2.9,8.3,3,8.3,3,8.2C2.9,7.7,2.8,7.3,2.9,7z"/>
	<path class="st0" d="M39.9,4.8c0.3,0.3,0.6,0.6,0.8,0.9c0.2,0.3,0.4,0.7,0.4,1.2l0.4,0.2c0.1,0,0.2-0.1,0.3-0.2
		C42,6.8,42,6.6,42.1,6.6c0.1-0.1,0.1-0.3,0-0.4C42.1,6.1,42,6,42,5.9c-0.1-0.1-0.1-0.2-0.1-0.3c0-0.1,0-0.2-0.1-0.3
		C41.5,5,41.3,4.7,41,4.4C40.7,4.2,40.4,4,40,4.1c-0.2,0.1-0.2,0.1-0.1,0.3C39.9,4.5,39.9,4.6,39.9,4.8z"/>
	<path class="st0" d="M19.2,33.1c-0.1,0.1-0.3,0.2-0.5,0.2c-0.2,0-0.4,0.1-0.5,0.2c-0.2,0.1-0.4,0.4-0.6,0.8
		c0.1,0.1,0.1,0.1,0.2,0.2c0.1,0.1,0.1,0.1,0.2,0.1c0.1,0,0.1,0,0.2-0.1c0.1-0.1,0.3-0.1,0.5-0.1c0.3-0.1,0.6-0.3,0.8-0.5
		c0.2-0.2,0.3-0.5,0.3-0.9c-0.1-0.1-0.2-0.2-0.3-0.2C19.2,32.7,19.2,32.8,19.2,33.1z"/>
	<path class="st0" d="M36.5,34c0.2-0.1,0.5-0.1,0.7-0.1s0.5,0,0.7,0s0.5,0,0.7,0s0.4-0.1,0.7-0.2c0.1-0.1,0.2-0.2,0.2-0.4
		c0.1-0.2,0.1-0.3,0.1-0.4c0.1-0.1,0.1-0.1,0.2-0.2c0.1,0,0.2-0.1,0.2-0.1c-0.1,0-0.2,0-0.3,0c-0.1,0-0.2,0.1-0.3,0.1
		c-0.2-0.3-0.3-0.6-0.5-0.9c-0.2-0.3-0.3-0.6-0.5-0.9c0-0.1,0-0.2-0.1-0.3c0-0.1-0.1-0.2-0.1-0.2c-0.1-0.2-0.2-0.5-0.3-0.7
		c-0.1-0.2-0.2-0.4-0.4-0.6l-0.5-0.7c-0.1-0.2-0.3-0.3-0.4-0.5c-0.2-0.2-0.3-0.4-0.4-0.6c-0.4-0.5-0.7-1.1-1-1.9
		c-0.1-0.3-0.3-0.6-0.5-0.9c-0.2-0.3-0.4-0.6-0.5-0.9c0.5-0.1,0.9-0.3,1.4-0.4c0.5-0.1,1-0.2,1.5-0.3c0.2-0.2,0.3-0.3,0.5-0.5
		c0.2-0.1,0.4-0.3,0.6-0.4c0-0.1,0.1-0.2,0.1-0.2c0-0.1,0.1-0.1,0.1-0.2c0.1-0.1,0.1-0.2,0.1-0.2c0-0.1,0.2-0.1,0.6-0.2
		c0.1,0,0.3,0,0.5-0.1c0.2-0.1,0.3-0.2,0.4-0.4c0.1-0.2,0.2-0.4,0.3-0.6s0.2-0.6,0.4-1.1c0.1-0.2,0.1-0.3,0.1-0.5c0-0.2,0-0.4,0-0.6
		c0.1-0.3,0.1-0.6,0.1-0.8s0-0.5,0-0.8c0-0.1,0-0.3,0-0.4c0-0.2,0-0.3,0-0.5c0-0.9,0-1.8,0-2.7c0-0.9,0-1.8-0.1-2.7
		c-0.1-0.6-0.2-1.2-0.4-1.7s-0.4-1-0.7-1.4c-0.3-0.4-0.6-0.8-0.9-1.1c-0.3-0.4-0.7-0.8-1.3-1.3c-0.4-0.1-0.9-0.3-1.3-0.5
		c-0.5-0.2-0.9-0.3-1.4-0.4c-0.1,0-0.2,0-0.2,0c-0.1,0-0.2,0-0.2,0c-0.2,0-0.3-0.1-0.5-0.1c-0.2,0-0.3,0-0.5,0c-0.1,0-0.2,0-0.2,0
		c-0.1,0-0.2,0-0.2,0c-0.2,0-0.5,0-0.7,0c-0.2,0-0.5,0-0.7,0.1c-0.2,0.1-0.4,0.2-0.6,0.4s-0.4,0.2-0.6,0.3c-0.4,0.1-0.8,0.1-1.1,0
		c-0.4-0.1-0.7-0.3-0.9-0.5C28.1,3.5,28,3.5,28,3.4c-0.1-0.1-0.3-0.1-0.6-0.1c-0.3,0-0.5,0-0.8,0c-0.3,0-0.5,0-0.7,0
		c-0.1,0-0.2,0-0.3,0.1c-0.1,0-0.2,0-0.3,0.1c-0.5,0.1-1.1,0.1-1.7,0.1c-0.6,0-1.1,0-1.6,0c-0.2,0-0.5,0.1-0.7,0.1s-0.5,0.1-0.7,0.1
		c-0.1,0-0.3,0-0.4,0c-0.1,0-0.3,0-0.4,0s-0.3,0-0.4,0c-0.1,0-0.3,0-0.4,0c-0.3,0-0.6,0-0.8,0c-0.3,0-0.6-0.1-0.9-0.1
		c-0.2,0-0.3,0-0.5,0s-0.4,0-0.8-0.1c-0.2,0-0.5,0-0.7,0c-0.2,0.1-0.4,0-0.6-0.1c-0.2,0.1-0.4,0.1-0.6,0.1c-0.2,0-0.4,0.1-0.6,0.1
		c-0.1,0-0.2,0-0.3,0c-0.1,0-0.2,0-0.3,0c-0.1,0-0.3,0-0.5,0c-0.2,0-0.3,0-0.5,0c-0.1,0-0.2,0-0.3,0c-0.1,0-0.2,0-0.3,0
		s-0.2,0-0.3,0c-0.1,0-0.2,0-0.4,0.1c-0.1,0-0.2,0-0.3,0c-0.1,0-0.2,0-0.3,0c-0.1,0-0.3,0-0.4,0.1C9.2,3.7,9,3.7,8.6,3.6
		c-0.2,0-0.3,0-0.5,0.1C7.9,3.7,7.6,3.8,7.3,4C7.2,4,7.1,4.1,7,4.2C7,4.3,6.9,4.4,6.8,4.4c-0.3,0.1-0.7,0.2-1,0.1
		C5.5,4.5,5.2,4.4,5,4.3C4.4,4.4,4.1,4.7,4,5.2C3.9,5.5,3.8,5.8,3.9,6.3s0,1,0,1.5c0,1.4,0,2.7-0.1,4c0,1.3,0,2.6,0,3.9
		c0,0.2,0,0.5,0,0.7s0.1,0.5,0.1,0.7c0,0.3,0.1,0.7,0.1,1c0.1,0.4,0.2,0.8,0.5,1.3c0.2,0.3,0.3,0.6,0.3,0.9c0,0.2,0,0.4,0,0.5
		c-0.1,0.1-0.1,0.2-0.2,0.3c-0.1,0.1-0.2,0.2-0.3,0.2c-0.1,0.1-0.2,0.2-0.2,0.3c-0.1,0.2-0.1,0.5,0,0.8c0,0.3,0.1,0.6,0.1,0.8
		c0,0.2,0,0.4,0,0.6c0,0.2,0,0.4,0,0.7c0,0.1,0,0.2,0,0.3c0,0.1,0,0.2,0,0.3s0.1,0.2,0.2,0.2c0.1,0.1,0.1,0.2,0.2,0.3
		c0,0.1,0.1,0.2,0.1,0.4c0,0.2,0,0.4-0.1,0.8c-0.1,0.2-0.1,0.5-0.1,0.7c0,0.2,0,0.5-0.1,0.7c-0.1,0.2-0.1,0.5-0.2,0.7
		c-0.1,0.2-0.1,0.5,0,0.7c0,0.1,0.1,0.2,0.2,0.3c0.1,0.1,0.2,0.1,0.2,0.2C4.9,30.6,5,31.1,5,31.7c-0.1,0.1-0.1,0.2-0.1,0.3
		c0,0.1,0,0.2-0.1,0.2c0,0.2,0,0.3,0,0.5c0,0.1,0,0.3,0.1,0.5c0.3,0.1,0.5,0.3,0.7,0.6c0.2,0.2,0.5,0.4,0.8,0.5c0.1,0,0.2,0,0.4,0
		c0.1,0,0.3,0,0.4,0.1c0.1,0.1,0.3,0.1,0.4,0.2c0.1,0.1,0.3,0.1,0.4,0.1c0.2,0.1,0.5,0.1,0.7,0.1c0.2,0,0.5,0,0.7-0.1
		c0.1,0,0.3,0,0.5,0c0.2,0,0.3,0,0.5,0c0.1,0,0.2,0,0.3,0c0.1,0,0.2,0,0.3,0c0.1,0,0.2,0,0.2,0c0.1,0,0.2,0,0.2,0
		c0.1,0,0.3,0,0.4-0.1c0.2,0,0.3-0.1,0.4-0.1c0.3,0,0.6,0,0.9,0c0.3,0,0.6,0,0.9-0.1c0.1,0,0.2,0,0.3,0c0.1,0,0.2,0,0.3,0
		c0.4-0.1,0.7-0.1,1.1,0c0.3,0,0.6-0.1,0.8-0.3c0.1-0.1,0.2-0.2,0.2-0.4c0.1-0.2,0.2-0.3,0.3-0.5c0.1-0.1,0.1-0.1,0.2-0.2
		c0.1-0.1,0.2-0.1,0.2-0.2c0.3-0.2,0.6-0.3,0.8-0.3c0-0.2,0.1-0.4,0.1-0.7c0.1-0.2,0.1-0.5,0.1-0.7c0-0.1,0-0.3,0-0.5
		c0-0.2,0-0.3,0-0.5c-0.1-0.6,0-1.2,0-1.8c0.1-0.6,0.1-1.2,0-1.6c-0.1-0.4-0.1-0.9-0.2-1.2c-0.1-0.4,0-0.8,0.1-1.1
		c0.1,0,0.1,0,0.2,0c0,0,0.1-0.1,0.2-0.3c0.2-0.1,0.5-0.2,0.7-0.2c0.3,0,0.5,0,0.8,0c0.3,0,0.6,0,0.9,0.1c0.3,0,0.6,0,0.9,0
		c0.2,0,0.3,0,0.5,0c0.4,0,0.9,0,1.4-0.1c0.5-0.1,0.9,0,1.4,0.1c0.1,0.2,0.2,0.4,0.3,0.6s0.2,0.4,0.3,0.6c0.1,0.2,0.3,0.4,0.5,0.6
		s0.3,0.4,0.5,0.6c0.2,0.2,0.4,0.5,0.5,0.8c0.1,0.3,0.3,0.6,0.5,0.8c0.2,0.1,0.5,0.3,0.8,0.4c0.3,0.1,0.5,0.3,0.7,0.5
		c0.1,0.1,0.2,0.2,0.3,0.4c0.1,0.2,0.2,0.4,0.2,0.5c0.1,0.2,0,0.4,0,0.6c-0.1,0.2,0,0.4,0.1,0.6c0.5,0.5,0.9,1.1,1.3,1.6
		c0.4,0.5,0.9,1,1.5,1.5c0.3,0.2,0.6,0.2,0.9,0.2s0.6-0.1,0.9-0.1c0.2,0,0.3,0,0.5,0c0.2,0,0.3,0,0.5,0c0.2,0,0.3-0.1,0.5-0.1
		C36.2,33.9,36.4,33.9,36.5,34z M7.9,7C7.8,7.1,7.7,7.2,7.5,7.2C7.3,7.3,7.2,7.4,7,7.4C6.9,7.5,6.7,7.6,6.6,7.6
		c-0.2,0-0.3,0.1-0.4,0.2C6.1,8.1,6,8.3,6,8.6c0,0.3-0.1,0.5-0.2,0.7C5.5,9.2,5.4,9.1,5.4,8.9c0-0.2-0.1-0.4-0.1-0.7
		C5.2,8,5.2,7.8,5.2,7.6c0-0.2,0.1-0.4,0.2-0.7c0.1-0.2,0.1-0.4,0.2-0.6C5.6,6.1,5.9,6,6.4,6.1c0.2,0,0.5,0,0.7-0.1
		c0.2-0.1,0.4,0,0.6,0.1c0.1,0.1,0.1,0.2,0.1,0.4C7.9,6.7,7.9,6.9,7.9,7z M7.9,33.4c0.3,0,0.6,0,0.9,0c0.3,0,0.5,0,0.7,0l0.1,0.2
		C9,33.8,8.4,33.7,7.9,33.4z M10.1,6.8c-0.3,0-0.6,0-0.7-0.2c0-0.2,0.1-0.4,0.1-0.6c0.1-0.2,0.3-0.3,0.7-0.3
		c0.3,0.2,0.4,0.4,0.4,0.7C10.7,6.6,10.5,6.7,10.1,6.8z M11.7,32.7c-0.3,0-0.5-0.1-0.6-0.3c-0.1-0.2,0-0.4,0.2-0.6
		c0.3,0,0.5,0.1,0.6,0.4C12.1,32.4,12,32.6,11.7,32.7z M16.1,31.5c-0.1,0.1-0.1,0.1-0.2,0.2c-0.1,0.1-0.2,0.2-0.3,0.3
		c-0.1,0.1-0.2,0.2-0.3,0.4c-0.1,0.1-0.2,0.2-0.3,0.3c-0.1,0.1-0.3,0.2-0.5,0.1c-0.2,0-0.4,0-0.5,0.1c-0.1-0.1-0.2-0.1-0.3-0.1
		c-0.1,0-0.2-0.1-0.3-0.3c0-0.2,0-0.4,0.1-0.5c0.1-0.1,0.2-0.2,0.3-0.3c0.3,0.1,0.5,0,0.7,0c0.2-0.1,0.3-0.2,0.4-0.4
		c0.1-0.2,0.2-0.3,0.3-0.5s0.2-0.3,0.4-0.4c0.3,0,0.6,0.1,0.7,0.3C16.4,30.9,16.4,31.2,16.1,31.5z M28.5,14.3l-8.6,5.1
		c-0.8,0.5-1.8-0.1-1.8-1V8.2c0-1,1.1-1.4,1.8-1l8.6,5.1C29.2,12.8,29.2,13.9,28.5,14.3z"/>
	<path class="st0" d="M41.7,33.8v-0.4c-0.1-0.2-0.2-0.4-0.3-0.6c-0.1-0.2-0.2-0.5-0.2-0.7c-0.1-0.2-0.2-0.3-0.4-0.2
		c-0.1,0.2-0.1,0.5,0,0.7c0.1,0.2,0.1,0.5,0.1,0.7c0,0.2-0.1,0.3-0.1,0.5s-0.1,0.2-0.2,0.4c-0.1,0.1-0.3,0.1-0.5,0.2
		c-0.2,0-0.4,0.1-0.8,0.2c-0.1,0-0.1,0-0.1,0c0,0-0.2,0-0.5,0c-0.1,0-0.2,0-0.2,0c-0.1,0-0.3,0-0.6,0.1c-0.2,0.1-0.4,0.1-0.5,0.1
		c-0.2,0-0.3,0-0.5,0.1c-0.4-0.2-0.6-0.1-0.8,0.2c-0.1,0.3-0.1,0.5,0.1,0.7c0.2,0.1,0.5,0.1,0.6,0s0.3-0.3,0.3-0.5l0.5,0.2
		c0.2,0.1,0.4,0.1,0.6,0.1c0.2,0,0.3,0,0.5,0c0.4-0.1,0.7-0.1,0.9-0.2s0.5-0.2,0.9-0.3c0.1,0,0.2,0,0.2,0c0.1,0,0.2,0,0.3,0
		c0.2,0,0.4-0.1,0.6-0.2c0.2-0.1,0.3-0.3,0.4-0.4c0.1-0.1,0.1-0.2,0-0.3C41.7,34,41.7,33.9,41.7,33.8z"/>
	<path class="st0" d="M42.6,15.7c0-0.2,0-0.4-0.1-0.5S42.4,15,42.2,15c-0.1,0.3-0.1,0.5-0.2,0.8c-0.1,0.2-0.1,0.5-0.1,0.8
		c0,0.2,0,0.3,0,0.5c0,0.2,0,0.3,0,0.5c0,0.2-0.1,0.4-0.1,0.7c-0.1,0.3-0.1,0.5-0.2,0.7c0,0.1,0,0.2,0,0.3c0,0.1,0,0.2,0,0.2
		c0,0.3-0.1,0.6-0.2,0.8c-0.1,0.2-0.3,0.5-0.4,0.7c-0.2,0.1-0.5,0.3-0.7,0.4c-0.2,0.2-0.5,0.3-0.8,0.4c-0.1,0.1-0.1,0.2-0.1,0.3
		c0,0.1-0.1,0.2-0.1,0.3c-0.1,0.1-0.1,0.2-0.2,0.3c-0.1,0.1,0,0.3,0.2,0.6c0.1,0,0.2,0,0.3-0.1c0.2-0.1,0.3-0.1,0.3-0.2
		c0.1-0.1,0.1-0.1,0.1-0.2c0-0.1,0.1-0.1,0.1-0.2c0.1-0.1,0.2-0.2,0.3-0.2c0.1-0.1,0.2-0.1,0.3-0.2c0.1-0.1,0.2-0.2,0.3-0.3
		c0.1-0.1,0.1-0.2,0.2-0.2c0.2-0.3,0.4-0.7,0.6-1c0.2-0.4,0.3-0.8,0.3-1.2c0.1-0.2,0.1-0.3,0.2-0.5c0.1-0.2,0.1-0.4,0.1-0.6
		c0-0.1,0-0.2,0-0.2c0-0.1,0-0.1,0-0.2c0-0.1,0.1-0.2,0.1-0.3c0-0.1,0-0.2,0-0.3c0-0.3,0-0.6,0-0.9C42.7,16.3,42.6,16,42.6,15.7z"/>
	<path class="st0" d="M21.6,24.8c-0.1,0-0.3,0-0.5,0c-0.2,0-0.3,0-0.5,0l-0.3-0.1c-0.4,0-0.7,0-0.9,0.2c-0.2,0.2-0.4,0.4-0.4,0.8
		c0,0.2,0,0.5,0,0.8s0.1,0.6,0.3,0.7c0.3-0.1,0.5-0.3,0.5-0.6c0-0.3,0.1-0.7,0.1-1c0.1,0,0.3-0.1,0.3-0.1c0.1-0.1,0.3-0.1,0.7,0
		c0.1,0,0.3,0,0.4-0.1c0.2-0.1,0.3-0.1,0.4,0c0.1-0.2,0.1-0.3,0-0.4C21.9,24.8,21.8,24.8,21.6,24.8z"/>
</g>
</svg>
