<?xml version="1.0" encoding="utf-8"?>
<!-- Generator: Adobe Illustrator 25.2.0, SVG Export Plug-In . SVG Version: 6.00 Build 0)  -->
<svg version="1.1" id="Layer_1" xmlns="http://www.w3.org/2000/svg" xmlns:xlink="http://www.w3.org/1999/xlink" x="0px" y="0px"
	 viewBox="0 0 44.7 37.1" style="enable-background:new 0 0 44.7 37.1;" xml:space="preserve">
<style type="text/css">
	.st0{fill:#E41E26;}
	.st1{fill:#F7F5F5;}
</style>
<g>
	<path class="st0" d="M2.3,7.6C2.3,7.6,2.2,7.7,2.1,7.8c-0.1,0.1-0.3,0-0.4-0.1C1.5,7.6,1.4,7.3,1.4,6.8c0-0.5-0.1-0.9-0.1-1.2
		c0-0.5,0-1,0-1.7c0-0.6,0.1-1.2,0.2-1.5c0.1,0,0.2-0.1,0.2-0.1C1.9,2.3,2,2.2,2.1,2.2c0.3,0,0.5-0.1,0.6-0.1C2.8,2.1,2.9,2,3,2
		c0.1,0,0.2,0,0.3,0c0.1,0,0.2,0,0.3,0C3.6,2,3.7,2,3.9,2C4,2,4.1,2,4.2,1.9c0.3,0,0.5,0,0.6,0c0.1,0,0.3-0.1,0.4-0.1
		c0.1,0,0.2-0.1,0.3-0.1c0.2,0,0.4,0,0.6,0.1C6.2,1.9,6.4,2,6.4,2.2c0,0.2,0,0.4-0.2,0.6C6,2.9,5.8,3,5.7,3c-0.2,0.1-0.5,0-0.6,0
		C4.9,2.9,4.7,2.9,4.5,2.8c-0.2,0-0.3,0-0.5,0c-0.2,0-0.3,0-0.5,0C3.4,3,3.2,3,3,3.1S2.6,3.2,2.4,3.3c-0.1,0.3-0.1,0.6-0.1,1
		c0.1,0.3,0,0.6-0.1,0.8c0.1,0.5,0,0.9,0,1.2C2.2,6.7,2.2,7.1,2.3,7.6z M3.1,32.9c0.3,0.2,0.6,0.5,0.9,0.7s0.6,0.5,1,0.6
		c-0.2,0.2-0.4,0.3-0.6,0.3c-0.2,0.1-0.3,0.1-0.5,0c-0.2,0-0.5-0.1-0.7-0.2S2.8,34.2,2.7,34c-0.1-0.3-0.2-0.6-0.3-0.7
		c-0.1-0.1-0.1-0.3-0.1-0.6c0-0.2,0-0.4,0.1-0.6c0.1-0.2,0.1-0.5,0.1-0.7c0-0.3,0-0.6,0-0.8c0-0.3,0-0.5,0.1-0.7
		c0.2,0,0.4,0,0.5,0.2c0.1,0.2,0.2,0.4,0.1,0.7c-0.1,0.3-0.1,0.5-0.1,0.8C3,31.8,2.9,32,3,32.2S3,32.7,3.1,32.9z M35.9,33.4
		c-0.1-0.1-0.3-0.1-0.5-0.1c-0.2,0-0.3,0.1-0.5,0.1c-0.2,0-0.3,0-0.5,0c-0.2,0-0.3,0-0.5,0c-0.3,0-0.6,0.1-0.9,0.1s-0.6,0-0.9-0.2
		c-0.6-0.4-1.1-0.9-1.5-1.5c-0.4-0.5-0.8-1.1-1.3-1.6c-0.1-0.2-0.1-0.4-0.1-0.6c0.1-0.2,0.1-0.4,0-0.6c0-0.1-0.1-0.3-0.2-0.5
		c-0.1-0.2-0.2-0.4-0.3-0.4c-0.2-0.2-0.4-0.4-0.7-0.5c-0.3-0.1-0.6-0.2-0.8-0.4c-0.2-0.2-0.4-0.5-0.5-0.8c-0.1-0.3-0.3-0.5-0.5-0.8
		c-0.1-0.2-0.3-0.4-0.5-0.6s-0.3-0.4-0.5-0.6c-0.1-0.2-0.2-0.4-0.3-0.6s-0.2-0.4-0.3-0.6c-0.5-0.1-0.9-0.2-1.4-0.1
		c-0.5,0.1-0.9,0.1-1.4,0.1c-0.2,0-0.4,0-0.5,0c-0.3,0-0.6,0-0.9,0c-0.3,0-0.6-0.1-0.9-0.1c-0.3,0-0.6,0-0.8,0
		c-0.3,0-0.5,0.1-0.7,0.2c-0.1,0.2-0.2,0.4-0.2,0.3c0,0-0.1,0-0.2,0c-0.1,0.4-0.2,0.7-0.1,1.1c0.1,0.4,0.1,0.8,0.2,1.2
		c0.1,0.5,0.1,1,0,1.6c-0.1,0.6-0.1,1.2,0,1.8c0,0.1,0,0.3,0,0.5c0,0.2,0,0.3,0,0.5c0,0.2,0,0.5-0.1,0.7c-0.1,0.2-0.1,0.4-0.1,0.7
		c-0.2,0-0.5,0.1-0.8,0.3c-0.1,0.1-0.1,0.1-0.2,0.2c-0.1,0.1-0.2,0.1-0.2,0.2c-0.1,0.1-0.2,0.3-0.3,0.5c-0.1,0.2-0.1,0.3-0.2,0.4
		c-0.2,0.2-0.5,0.3-0.8,0.3c-0.3,0-0.7,0-1.1,0c-0.1,0-0.2,0-0.3,0c-0.1,0-0.2,0-0.3,0c-0.3,0.1-0.6,0.1-0.9,0.1c-0.3,0-0.6,0-0.9,0
		c-0.1,0-0.3,0-0.4,0.1c-0.2,0-0.3,0.1-0.4,0.1c-0.1,0-0.2,0-0.2,0c-0.1,0-0.2,0-0.2,0c-0.1,0-0.2,0-0.3,0c-0.1,0-0.2,0-0.3,0
		c-0.2,0-0.3,0-0.5,0c-0.2,0-0.3,0-0.5,0c-0.2,0-0.4,0-0.7,0.1c-0.2,0-0.5,0-0.7-0.1c-0.1,0-0.3,0-0.4-0.1c-0.1-0.1-0.3-0.1-0.4-0.2
		c-0.1-0.1-0.3-0.1-0.4-0.1c-0.1,0-0.2,0-0.4,0C5.4,33.4,5.2,33.2,5,33c-0.2-0.2-0.4-0.4-0.7-0.6c-0.1-0.2-0.1-0.3-0.1-0.5
		c0-0.1,0-0.3,0-0.5c0.1-0.1,0.1-0.1,0.1-0.2c0-0.1,0-0.2,0.1-0.3c0-0.5-0.1-1-0.3-1.4c-0.1-0.1-0.2-0.2-0.2-0.2
		c-0.1-0.1-0.1-0.2-0.2-0.3c0-0.2,0-0.5,0-0.7c0.1-0.2,0.1-0.5,0.2-0.7c0.1-0.2,0.1-0.5,0.1-0.7c0-0.2,0-0.5,0.1-0.7
		c0.1-0.4,0.1-0.6,0.1-0.8c0-0.2-0.1-0.3-0.1-0.4c0-0.1-0.1-0.2-0.2-0.3c-0.1-0.1-0.1-0.1-0.2-0.2s0-0.2,0-0.3c0-0.1,0-0.2,0-0.3
		c0-0.2,0-0.4,0-0.7c0-0.2,0-0.4,0-0.6c0-0.2-0.1-0.5-0.1-0.8c0-0.3,0-0.6,0-0.8c0-0.1,0.1-0.2,0.2-0.3c0.1-0.1,0.2-0.2,0.3-0.2
		c0.1-0.1,0.2-0.2,0.2-0.3c0.1-0.1,0.1-0.3,0-0.5c-0.1-0.3-0.2-0.6-0.3-0.9c-0.3-0.5-0.5-0.9-0.5-1.3c-0.1-0.4-0.1-0.7-0.1-1
		c0-0.2-0.1-0.5-0.1-0.7c0-0.2,0-0.5,0-0.7c-0.1-1.3-0.1-2.7,0-3.9c0-1.3,0.1-2.6,0.1-4c0.1-0.6,0.1-1.1,0-1.5s0-0.8,0.1-1.1
		c0.1-0.5,0.5-0.8,1-0.9c0.2,0.1,0.5,0.2,0.8,0.2c0.3,0.1,0.7,0,1-0.1c0.1,0,0.2-0.1,0.2-0.2c0.1-0.1,0.1-0.2,0.2-0.2
		C7,3.2,7.2,3.1,7.4,3C7.6,3,7.7,2.9,7.9,3c0.4,0.1,0.7,0.2,0.8,0.1C8.8,3,8.9,3,9,3c0.1,0,0.2,0,0.3,0c0.1,0,0.2,0,0.3,0
		c0.1,0,0.3,0,0.4-0.1c0.1,0,0.2,0,0.3,0s0.2,0,0.3,0c0.1,0,0.2,0,0.3,0c0.1,0,0.3,0,0.5,0c0.2,0,0.3,0,0.5,0c0.1,0,0.2,0,0.3,0
		c0.1,0,0.2,0,0.3,0c0.2,0,0.4-0.1,0.6-0.1c0.2,0,0.4-0.1,0.6-0.1c0.2,0.1,0.4,0.1,0.6,0.1c0.2-0.1,0.5-0.1,0.7,0
		C15.4,2.9,15.7,3,15.9,3s0.4,0,0.5,0c0.3,0,0.6,0,0.9,0.1c0.3,0,0.6,0,0.8,0c0.1,0,0.3,0,0.4,0c0.1,0,0.3,0,0.4,0s0.3,0,0.4,0
		c0.1,0,0.3,0,0.4,0c0.2,0,0.5-0.1,0.7-0.1s0.5-0.1,0.7-0.1c0.5,0,1.1,0,1.6,0c0.6,0,1.1,0,1.7-0.1c0.1,0,0.2,0,0.3-0.1
		c0.1,0,0.2,0,0.3-0.1c0.2,0,0.4,0,0.7,0c0.3,0,0.5,0,0.8,0c0.3,0,0.5,0,0.6,0.1c0.1,0.1,0.2,0.2,0.2,0.2c0.2,0.2,0.5,0.4,0.9,0.5
		c0.4,0.1,0.7,0.2,1.1,0c0.2-0.1,0.4-0.1,0.6-0.3s0.4-0.2,0.6-0.4c0.2-0.1,0.5-0.2,0.7-0.1c0.2,0,0.5,0,0.7,0c0.1,0,0.2,0,0.2,0
		c0.1,0,0.2,0,0.2,0c0.2,0,0.3,0,0.5,0c0.2,0,0.3,0.1,0.5,0.1c0.1,0,0.2,0,0.2,0c0.1,0,0.2,0,0.2,0c0.5,0.1,1,0.2,1.4,0.4
		c0.5,0.2,0.9,0.4,1.3,0.5c0.5,0.5,1,0.9,1.3,1.3c0.3,0.4,0.6,0.7,0.9,1.1c0.2,0.4,0.5,0.9,0.7,1.4s0.3,1.1,0.4,1.7
		c0.1,0.9,0.1,1.8,0.1,2.7c0,0.9,0,1.8,0,2.7c0,0.2,0,0.4,0,0.5c0,0.2,0,0.3,0,0.4c0,0.3,0,0.6,0,0.8s-0.1,0.5-0.1,0.8
		c0,0.2,0,0.4,0,0.6c0,0.2,0,0.4-0.1,0.5c-0.2,0.5-0.3,0.9-0.4,1.1s-0.2,0.4-0.3,0.6c-0.1,0.1-0.2,0.3-0.4,0.4
		c-0.2,0.1-0.3,0.1-0.5,0.1c-0.4,0-0.6,0.1-0.6,0.2c0,0.1-0.1,0.2-0.1,0.2c-0.1,0.1-0.1,0.2-0.1,0.2c0,0.1-0.1,0.1-0.1,0.2
		c-0.2,0.1-0.4,0.3-0.6,0.4c-0.2,0.1-0.4,0.3-0.5,0.5c-0.5,0.1-1,0.2-1.5,0.3c-0.5,0.1-0.9,0.3-1.4,0.4c0.1,0.3,0.3,0.6,0.5,0.9
		c0.2,0.3,0.4,0.6,0.5,0.9c0.3,0.7,0.6,1.3,1,1.9c0.1,0.2,0.2,0.4,0.4,0.6c0.2,0.2,0.3,0.4,0.4,0.5l0.5,0.7c0.2,0.2,0.3,0.4,0.4,0.6
		c0.1,0.2,0.2,0.4,0.3,0.7c0.1,0.1,0.1,0.2,0.1,0.2c0,0.1,0.1,0.2,0.1,0.3c0.2,0.3,0.3,0.6,0.5,0.9c0.2,0.3,0.3,0.6,0.5,0.9
		c0.1,0,0.2-0.1,0.3-0.1c0.1,0,0.2,0,0.3,0c-0.1,0.1-0.1,0.1-0.2,0.1c-0.1,0-0.2,0.1-0.2,0.2c0,0.1-0.1,0.2-0.1,0.4
		c-0.1,0.2-0.1,0.3-0.2,0.4c-0.2,0.1-0.4,0.2-0.7,0.2s-0.5,0-0.7,0s-0.5,0-0.7,0S36.1,33.3,35.9,33.4z M7.2,6.4
		c0.1-0.1,0.1-0.3,0.1-0.5c0-0.2-0.1-0.4-0.1-0.4C6.9,5.4,6.7,5.3,6.5,5.4C6.2,5.5,6,5.5,5.8,5.5c-0.5,0-0.8,0.1-0.9,0.2
		C4.8,5.9,4.7,6.1,4.7,6.3C4.6,6.6,4.5,6.8,4.5,7c0,0.2,0,0.4,0,0.6c0.1,0.3,0.1,0.5,0.1,0.7c0,0.2,0.2,0.3,0.4,0.4
		C5.2,8.5,5.3,8.3,5.3,8c0-0.3,0.1-0.5,0.1-0.8C5.6,7.1,5.7,7.1,5.9,7C6,7,6.2,6.9,6.4,6.8c0.1-0.1,0.3-0.1,0.5-0.2
		C7,6.6,7.1,6.5,7.2,6.4z M8.9,32.8c-0.2,0-0.5,0-0.7,0c-0.3,0-0.6,0-0.9,0C7.8,33.1,8.3,33.2,9,33L8.9,32.8z M8.8,1.8
		c0,0.2,0,0.4-0.1,0.5S8.4,2.4,8.3,2.4S8,2.4,7.8,2.3S7.6,2,7.6,1.8C7.8,1.7,8,1.6,8.2,1.6C8.5,1.5,8.7,1.6,8.8,1.8z M10,5.8
		c0-0.2-0.1-0.5-0.4-0.7C9.2,5.1,9,5.2,8.9,5.4C8.8,5.5,8.8,5.7,8.8,6c0.1,0.1,0.4,0.2,0.7,0.2C9.8,6.1,10,6,10,5.8z M11.1,32.1
		c0.2-0.1,0.3-0.3,0.3-0.6c-0.1-0.3-0.3-0.4-0.6-0.4c-0.2,0.1-0.3,0.3-0.2,0.6C10.6,32,10.8,32.1,11.1,32.1z M15.4,30.9
		c0.2-0.3,0.3-0.6,0.2-0.8c-0.1-0.2-0.4-0.4-0.7-0.3c-0.2,0.1-0.3,0.2-0.4,0.4s-0.2,0.3-0.3,0.5c-0.1,0.2-0.2,0.3-0.4,0.4
		c-0.2,0.1-0.4,0.1-0.7,0c-0.1,0.1-0.2,0.2-0.3,0.3c-0.1,0.1-0.2,0.3-0.1,0.5c0.1,0.1,0.1,0.2,0.3,0.3c0.1,0,0.2,0.1,0.3,0.1
		c0.1-0.1,0.3-0.1,0.5-0.1c0.2,0,0.4,0,0.5-0.1c0.1-0.1,0.2-0.1,0.3-0.3c0.1-0.1,0.2-0.2,0.3-0.4c0.1-0.1,0.2-0.2,0.3-0.3
		C15.3,31,15.4,30.9,15.4,30.9z M18.5,32.4c0-0.2,0-0.3,0.2-0.3c0.2,0,0.3,0.1,0.3,0.2c0,0.4-0.1,0.7-0.3,0.9
		c-0.2,0.2-0.5,0.4-0.8,0.5c-0.3,0-0.5,0.1-0.5,0.1c-0.1,0.1-0.2,0.1-0.2,0.1c-0.1,0-0.2,0-0.2-0.1c-0.1-0.1-0.1-0.1-0.2-0.2
		c0.2-0.4,0.4-0.6,0.6-0.8c0.1-0.1,0.3-0.2,0.5-0.2C18.2,32.7,18.4,32.6,18.5,32.4z M20,24.2c0.1,0,0.3,0,0.5,0c0.2,0,0.3,0,0.5,0
		c0.1,0,0.2,0.1,0.3,0.1c0.1,0.1,0,0.2,0,0.4c-0.1,0-0.3,0-0.4,0c-0.2,0.1-0.3,0.1-0.4,0.1c-0.4-0.1-0.6,0-0.7,0
		c-0.1,0.1-0.2,0.1-0.3,0.1c0,0.3-0.1,0.7-0.1,1c0,0.3-0.2,0.6-0.5,0.6c-0.2-0.1-0.3-0.4-0.3-0.7s0-0.6,0-0.8c0-0.4,0.2-0.7,0.4-0.8
		c0.2-0.2,0.6-0.2,0.9-0.2L20,24.2z M41,33.1c0,0.1,0.1,0.2,0.1,0.3c0,0.1,0,0.2,0,0.3c-0.1,0.1-0.2,0.3-0.4,0.4
		c-0.2,0.1-0.4,0.2-0.6,0.2c-0.1,0-0.2,0-0.3,0c-0.1,0-0.2,0-0.2,0c-0.4,0.1-0.6,0.2-0.9,0.3s-0.5,0.2-0.9,0.2c-0.2,0-0.3,0-0.5,0
		c-0.2,0-0.3-0.1-0.6-0.1l-0.5-0.2c0,0.2-0.1,0.4-0.3,0.5s-0.4,0.1-0.6,0c-0.2-0.2-0.2-0.5-0.1-0.7c0.1-0.3,0.4-0.3,0.8-0.2
		c0.2-0.1,0.3-0.1,0.5-0.1c0.2,0,0.3,0,0.5-0.1c0.3-0.1,0.5-0.1,0.6-0.1c0.1,0,0.2,0,0.2,0c0.3,0,0.4,0,0.5,0c0,0,0.1,0,0.1,0
		c0.4-0.1,0.7-0.2,0.8-0.2c0.2,0,0.3-0.1,0.5-0.2c0.1-0.2,0.1-0.3,0.2-0.4s0.1-0.3,0.1-0.5c0-0.2,0-0.5-0.1-0.7
		c-0.1-0.2-0.1-0.5,0-0.7c0.2-0.1,0.4,0,0.4,0.2c0.1,0.2,0.1,0.5,0.2,0.7c0.2,0.2,0.3,0.4,0.3,0.6V33.1z M42,16.8c0,0.1,0,0.2,0,0.3
		c0,0.1-0.1,0.2-0.1,0.3c0,0.1,0,0.2,0,0.2c0,0.1,0,0.1,0,0.2c0,0.2-0.1,0.4-0.1,0.6c-0.1,0.2-0.1,0.4-0.2,0.5
		c0,0.5-0.1,0.9-0.3,1.2c-0.2,0.4-0.4,0.7-0.6,1c-0.1,0-0.2,0.1-0.2,0.2c-0.1,0.1-0.2,0.2-0.3,0.3c-0.1,0.1-0.2,0.1-0.3,0.2
		c-0.1,0.1-0.2,0.1-0.3,0.2c-0.1,0.1-0.1,0.1-0.1,0.2c0,0.1-0.1,0.1-0.1,0.2c-0.1,0.1-0.2,0.1-0.3,0.2c-0.2,0.1-0.3,0.1-0.3,0.1
		c-0.2-0.3-0.3-0.5-0.2-0.6c0.1-0.1,0.2-0.2,0.2-0.3c0.1-0.1,0.1-0.2,0.1-0.3c0-0.1,0.1-0.2,0.1-0.3c0.3-0.1,0.6-0.2,0.8-0.4
		c0.2-0.2,0.5-0.3,0.7-0.4c0.1-0.2,0.2-0.5,0.4-0.7c0.1-0.2,0.2-0.5,0.2-0.8c0-0.1,0-0.1,0-0.2c0-0.1,0-0.2,0-0.3
		c0.1-0.2,0.1-0.5,0.2-0.7c0.1-0.3,0.1-0.5,0.1-0.7c0-0.2,0-0.3,0-0.5c0-0.2,0-0.3,0-0.5c0-0.3,0-0.5,0.1-0.8
		c0.1-0.2,0.1-0.5,0.2-0.8c0.2,0,0.3,0.1,0.3,0.2s0,0.3,0.1,0.5c0.1,0.3,0.1,0.5,0.1,0.8C42,16.2,42,16.5,42,16.8z M40.5,6.3
		c-0.1-0.5-0.2-0.9-0.4-1.2c-0.2-0.3-0.5-0.6-0.8-0.9c0-0.1,0-0.3-0.1-0.4c-0.1-0.1,0-0.2,0.1-0.3c0.4-0.1,0.8,0.1,1.1,0.3
		c0.3,0.3,0.5,0.6,0.8,0.9C41.1,4.9,41.2,5,41.2,5c0,0.1,0,0.2,0.1,0.3c0.1,0.1,0.1,0.1,0.1,0.3c0,0.1,0,0.3,0,0.4
		c0,0.1-0.1,0.2-0.2,0.3c-0.1,0.1-0.2,0.2-0.3,0.2L40.5,6.3z"/>
</g>
<path class="st1" d="M27.8,11.7l-8.6-5.1c-0.7-0.4-1.8,0-1.8,1v10.2c0,0.9,1,1.5,1.8,1l8.6-5.1C28.6,13.3,28.6,12.2,27.8,11.7
	L27.8,11.7z"/>
</svg>
