<?xml version="1.0" encoding="utf-8"?>
<!-- Generator: Adobe Illustrator 24.1.2, SVG Export Plug-In . SVG Version: 6.00 Build 0)  -->
<svg version="1.1" id="logo" xmlns="http://www.w3.org/2000/svg" xmlns:xlink="http://www.w3.org/1999/xlink" x="0px" y="0px"
	 viewBox="0 0 391.5 124.9" style="enable-background:new 0 0 391.5 124.9;" xml:space="preserve">
<style type="text/css">
	.st0{fill:#E41E26;}
</style>
<path id="r" class="st0" d="M2.3,15.5c-0.2,0.2-0.4,0.4-0.6,0.5c-0.3,0.2-0.6,0.1-0.9-0.2c-0.4-0.6-0.7-1.3-0.6-2
	C0,12.7,0,11.8,0,11.1C0,10,0,8.7,0.1,7.2C0,6,0.2,4.8,0.6,3.7C0.8,3.6,1,3.5,1.1,3.4c0.2-0.1,0.4-0.2,0.7-0.3
	c0.5,0,0.9-0.1,1.3-0.2c0.2-0.1,0.4-0.2,0.6-0.2c0.2,0,0.4,0,0.7,0c0.2,0,0.4,0.1,0.7,0c0.3-0.1,0.5-0.1,0.8-0.1
	c0.3,0,0.5-0.1,0.8-0.1c0.4,0,0.9,0,1.3-0.1l0.8-0.2L9.3,2c0.5-0.1,1,0,1.5,0.2c0.4,0.2,0.7,0.4,0.9,0.8c0.1,0.5-0.1,1-0.5,1.3
	C10.9,4.7,10.4,4.9,10,5C9.5,5.1,9,5.1,8.6,4.9C8.2,4.7,7.8,4.6,7.3,4.5C7,4.5,6.6,4.5,6.2,4.5C5.8,4.6,5.4,4.6,5,4.6
	C4.6,4.8,4.2,5,3.7,5.1c-0.5,0-0.9,0.2-1.2,0.6C2.2,6.3,2.2,7.1,2.3,7.9c0.2,0.7,0.1,1.4-0.2,2c0.1,0.9,0.1,1.9-0.1,2.9
	C1.9,13.6,2,14.6,2.3,15.5z M4,74.1c0.7,0.5,1.4,1.1,2,1.6c0.7,0.6,1.4,1,2.3,1.4c-0.4,0.3-0.8,0.6-1.3,0.8C6.6,78,6.3,78,5.9,77.9
	c-0.6,0-1.1-0.1-1.6-0.4c-0.4-0.2-0.8-0.6-1-1C3.1,76,2.9,75.4,2.6,75c-0.2-0.4-0.4-0.8-0.3-1.3c0-0.5,0.1-0.9,0.2-1.4
	c0.2-0.5,0.3-1,0.3-1.6c0.1-0.7,0.1-1.3,0-2c-0.1-0.5,0-1.1,0.3-1.6c0.5-0.1,0.9,0.1,1.2,0.5c0.3,0.5,0.4,1.1,0.2,1.6
	c-0.2,0.6-0.3,1.2-0.4,1.8c-0.4,0.3-0.6,0.8-0.5,1.3C3.8,73,3.9,73.5,4,74.1z M79.7,75.1c-0.3-0.2-0.7-0.2-1-0.1
	c-0.4,0.1-0.8,0.2-1.1,0.2c-0.4,0-0.7,0-1.1,0c-0.3,0-0.7,0-1.1,0c-0.7,0.1-1.5,0.1-2.2,0.3c-0.7,0.1-1.4,0-2-0.4
	c-1.4-0.9-2.6-2.1-3.6-3.4c-0.9-1.3-1.8-2.5-2.9-3.7c-0.2-0.4-0.3-1-0.1-1.4c0.1-0.5,0.1-1,0-1.4c-0.1-0.4-0.2-0.8-0.4-1.2
	c-0.2-0.4-0.4-0.7-0.6-1c-0.4-0.5-1-0.9-1.6-1.1c-0.7-0.2-1.3-0.5-1.9-0.9c-0.5-0.5-0.9-1.2-1.2-1.8c-0.3-0.7-0.7-1.3-1.2-1.8
	c-0.3-0.5-0.7-1-1.1-1.5c-0.4-0.5-0.8-1-1.1-1.5c-0.2-0.4-0.5-0.9-0.7-1.3c-0.2-0.4-0.5-0.9-0.8-1.3c-1-0.3-2.2-0.4-3.2-0.2
	c-1,0.2-2.1,0.2-3.1,0.1c-0.4-0.1-0.8-0.1-1.2,0c-0.7,0.1-1.4,0.1-2.1,0c-0.7-0.1-1.4-0.2-2-0.2s-1.3,0-1.9,0
	c-0.6,0-1.2,0.2-1.7,0.5c-0.3,0.6-0.4,0.8-0.5,0.8c-0.1-0.1-0.2-0.1-0.4-0.1c-0.3,0.8-0.4,1.7-0.3,2.5c0.1,0.9,0.2,1.8,0.4,2.9
	c0.2,1.3,0.2,2.5,0,3.8c-0.2,1.4-0.2,2.7-0.1,4.1c0,0.3,0,0.7,0,1.1s0,0.7,0,1c0,0.5-0.1,1.1-0.2,1.6c-0.2,0.5-0.3,1-0.3,1.5
	c-0.6,0.1-1.2,0.4-1.8,0.8c-0.2,0.2-0.3,0.3-0.5,0.4c-0.2,0.1-0.4,0.2-0.5,0.4c-0.3,0.3-0.5,0.7-0.7,1.1c-0.1,0.4-0.3,0.7-0.6,0.9
	c-0.5,0.5-1.2,0.8-1.9,0.7c-0.8-0.1-1.7,0-2.5,0.1c-0.2,0-0.4,0-0.6,0s-0.4,0-0.6,0c-0.7,0.1-1.4,0.2-2.1,0.1c-0.7,0-1.4,0-2.1,0
	c-0.3,0-0.7,0.1-1,0.1c-0.5,0.2-1,0.2-1.6,0.1c-0.2,0-0.4,0-0.6,0c-0.2,0-0.4,0-0.6,0.1C19.5,76,19.3,76,19.1,76
	c-0.4,0-0.8,0-1.2,0.1s-0.8,0-1.1,0c-0.5,0.1-1,0.1-1.6,0.1c-0.6,0-1.1,0-1.7-0.1c-0.3,0-0.6-0.1-0.9-0.2c-0.3-0.1-0.6-0.3-0.9-0.4
	c-0.3-0.1-0.6-0.2-0.9-0.2c-0.3,0-0.5,0-0.8,0c-0.7-0.2-1.3-0.6-1.8-1.2c-0.4-0.5-1-0.9-1.6-1.2c-0.1-0.3-0.2-0.7-0.2-1
	c0-0.3,0-0.7-0.1-1c0.1-0.1,0.2-0.3,0.2-0.5c0-0.2,0.1-0.4,0.2-0.6c0-1.1-0.2-2.2-0.8-3.1c-0.2-0.2-0.4-0.4-0.6-0.5
	c-0.2-0.2-0.3-0.4-0.4-0.7c-0.1-0.5,0-1.1,0.1-1.6c0.1-0.6,0.2-1.1,0.4-1.7c0.1-0.6,0.2-1.1,0.2-1.7c0-0.5,0.1-1.1,0.2-1.6
	c0.2-0.6,0.3-1.2,0.2-1.8C6.1,56.6,6,56.3,6,56.1c-0.1-0.2-0.2-0.5-0.4-0.6c-0.3-0.3-0.5-0.7-0.4-1.2c0-0.2,0-0.4-0.1-0.6
	c0-0.5,0-1,0.1-1.5c0-0.5,0-1-0.1-1.4c-0.1-0.4-0.1-1-0.2-1.8c-0.1-0.6-0.1-1.3,0.1-1.9c0.1-0.3,0.2-0.5,0.4-0.7L6,45.8
	c0.2-0.2,0.4-0.4,0.5-0.7c0.1-0.4,0.2-0.9,0.1-1.3c-0.1-0.7-0.4-1.4-0.8-2c-0.6-0.9-1-1.9-1.2-2.9c-0.1-0.8-0.2-1.6-0.3-2.4
	c-0.1-0.6-0.1-1.1-0.2-1.7c-0.1-0.6-0.1-1.1-0.1-1.7c-0.1-3.1-0.1-6.1,0-9.1s0.1-6,0.1-9.3c0.1-1.2,0.2-2.4,0.1-3.6
	c-0.1-0.9,0-1.8,0.2-2.6c0.2-1.1,1.2-2,2.4-2C7.5,6.8,8.1,6.9,8.8,7c0.8,0.1,1.6,0,2.3-0.3c0.2-0.1,0.5-0.2,0.6-0.4
	c0.1-0.2,0.3-0.4,0.6-0.5C13,5.5,13.6,5.2,14,5c0.4-0.2,0.8-0.3,1.1-0.2c1,0.3,1.5,0.4,1.8,0.3c0.3-0.1,0.6-0.2,0.9-0.2
	c0.3,0,0.5,0,0.8,0c0.3,0,0.5,0,0.8,0c0.3-0.1,0.6-0.1,0.9-0.1c0.3,0,0.5,0,0.8,0c0.2,0,0.4,0,0.7,0.1c0.2,0.1,0.4,0.1,0.7,0.1
	c0.3,0,0.7,0,1,0s0.7,0,1,0c0.2,0,0.5,0,0.7,0.1c0.2,0.1,0.5,0.1,0.7,0.1c0.5-0.1,1-0.1,1.5-0.2c0.5-0.1,0.9-0.2,1.4-0.4
	c0.4,0.3,0.9,0.3,1.4,0.2c0.5-0.1,1.1-0.2,1.6-0.1c0.6,0.2,1.2,0.3,1.9,0.3c0.4-0.1,0.8-0.1,1.2-0.1c0.7,0,1.3,0.1,2,0.1
	c0.7,0.1,1.3,0.1,2,0c0.3,0,0.6,0,1,0s0.6,0,1,0s0.6,0,1,0s0.6,0,1,0c0.6-0.1,1.1-0.1,1.7-0.2s1.1-0.2,1.7-0.2
	c1.2-0.1,2.5-0.1,3.8,0c1.3,0,2.6,0,3.9-0.1c0.3-0.1,0.5-0.1,0.8-0.1C54.7,4,55,4,55.2,3.9c0.4,0,1,0,1.6,0s1.3,0,1.9,0
	c0.5-0.1,0.9,0.1,1.3,0.3c0.2,0.2,0.4,0.4,0.6,0.5c0.6,0.5,1.2,0.9,1.9,1.3c0.8,0.3,1.7,0.4,2.6,0.1c0.5-0.1,0.9-0.4,1.4-0.6
	l1.4-0.8c0.5-0.2,1.1-0.3,1.6-0.3c0.6,0.1,1.1,0.1,1.7,0.1c0.2,0,0.4,0,0.6-0.1c0.2-0.1,0.4-0.1,0.6-0.1c0.4,0,0.8,0,1.1,0.1
	l1.1,0.2c0.2,0,0.4,0,0.6,0c0.2,0,0.4,0,0.6,0c1.1,0.1,2.3,0.4,3.3,0.9c1.1,0.5,2.1,0.8,3,1.1c1.1,0.9,2.1,1.9,3,2.9
	c0.7,0.9,1.4,1.7,2.1,2.6c0.6,1,1.1,2.1,1.6,3.2c0.5,1.2,0.8,2.6,0.9,3.9c0.1,2.2,0.2,4.2,0.2,6.2s0,4.1,0.1,6.2
	c0,0.5,0,0.8-0.1,1.2c0,0.3,0,0.7,0.1,1c0.1,0.6,0,1.3-0.1,1.9l-0.3,1.9c0,0.4,0,0.9,0,1.3c0,0.4,0,0.8-0.1,1.2
	c-0.4,1.1-0.8,2-0.9,2.5c-0.2,0.5-0.4,1-0.7,1.4c-0.2,0.3-0.6,0.6-0.9,0.8c-0.3,0.2-0.7,0.3-1.1,0.3c-0.8,0.1-1.3,0.2-1.4,0.4
	c-0.1,0.2-0.2,0.4-0.3,0.6c-0.1,0.2-0.2,0.4-0.3,0.6c-0.1,0.2-0.2,0.4-0.2,0.6l-1.3,1c-0.4,0.3-0.9,0.6-1.2,1
	c-1.2,0.2-2.3,0.4-3.5,0.8l-3.2,1c0.3,0.7,0.7,1.4,1.3,2c0.5,0.6,0.9,1.3,1.2,2c0.6,1.5,1.4,3,2.4,4.3c0.3,0.5,0.6,0.9,0.9,1.3
	l1,1.2l1.1,1.7c0.4,0.5,0.7,1,1,1.5c0.2,0.5,0.5,1,0.8,1.6c0.1,0.2,0.2,0.4,0.3,0.6c0.1,0.2,0.2,0.4,0.2,0.7l1.1,2.1l1.1,2.1
	c0.3-0.1,0.6-0.1,0.8-0.2c0.2-0.1,0.5-0.1,0.8-0.1c-0.2,0.1-0.4,0.2-0.6,0.3c-0.2,0-0.4,0.2-0.6,0.4c-0.1,0.2-0.2,0.5-0.3,0.8
	c-0.1,0.3-0.3,0.6-0.6,0.9c-0.5,0.3-1,0.5-1.5,0.6c-0.5,0.1-1.1,0.1-1.6,0.1h-1.7C80.8,74.8,80.3,74.9,79.7,75.1z M13.5,12.8
	c0.1-0.4,0.2-0.8,0.1-1.1c0-0.5-0.1-0.8-0.3-1c-0.4-0.3-1-0.4-1.5-0.2c-0.5,0.2-1.1,0.2-1.7,0.1c-1.2-0.1-1.9,0.1-2,0.6
	c-0.2,0.5-0.3,0.9-0.4,1.4c-0.2,0.5-0.3,1-0.4,1.5c-0.1,0.4,0,0.9,0.1,1.3c0.1,0.7,0.2,1.2,0.3,1.7c0.1,0.5,0.4,0.8,0.8,1
	c0.3-0.5,0.5-1,0.5-1.6c0-0.6,0.1-1.2,0.3-1.8c0.3-0.2,0.6-0.4,1-0.5c0.4-0.1,0.7-0.3,1.1-0.4c0.3-0.2,0.7-0.3,1-0.4
	C12.9,13.3,13.3,13.1,13.5,12.8z M17.4,73.8c-0.6-0.1-1.1-0.1-1.7-0.1c-0.7,0-1.3,0-2,0c1.2,0.8,2.6,1,3.9,0.6L17.4,73.8z M17.3,2.2
	c0.1,0.4,0,0.8-0.3,1.1c-0.6,0.4-1.4,0.4-2,0c-0.3-0.2-0.4-0.6-0.4-1C15,1.9,15.4,1.7,16,1.7C16.5,1.5,17,1.7,17.3,2.2L17.3,2.2z
	 M20.1,11.3c0-0.7-0.4-1.3-1-1.5c-1,0.1-1.5,0.3-1.7,0.7c-0.2,0.4-0.3,0.9-0.3,1.3c0.5,0.4,1,0.5,1.6,0.4
	C19.5,12.2,19.9,11.9,20.1,11.3L20.1,11.3z M22.5,72.2c0.5-0.2,0.8-0.7,0.6-1.3c0,0,0,0,0,0c-0.2-0.6-0.6-0.9-1.4-0.8
	c-0.5,0.3-0.7,0.8-0.5,1.3C21.3,72,21.9,72.3,22.5,72.2L22.5,72.2z M32.5,69.3c0.5-0.5,0.7-1.2,0.4-1.9c-0.3-0.6-0.9-0.9-1.6-0.8
	c-0.4,0.2-0.7,0.5-0.9,0.9c-0.2,0.3-0.5,0.7-0.7,1c-0.3,0.3-0.6,0.6-1,0.8c-0.5,0.2-1,0.2-1.5,0.1c-0.3,0.2-0.5,0.5-0.8,0.7
	c-0.3,0.3-0.4,0.8-0.3,1.2c0.1,0.3,0.3,0.5,0.6,0.6c0.3,0.1,0.5,0.2,0.8,0.3c0.4-0.1,0.8-0.2,1.1-0.1c0.4,0,0.8-0.1,1.1-0.3
	c0.2-0.2,0.4-0.4,0.6-0.6l0.6-0.8c0.2-0.2,0.5-0.5,0.8-0.7C32.1,69.6,32.3,69.5,32.5,69.3L32.5,69.3z M57.5,35.8
	c0.4-0.5,0.7-1,1-1.6c0.3-0.6,0.4-1.2,0.5-1.8c0-0.6,0-1.1,0-1.7c0-0.6,0-1.2,0.1-1.8c0.1-0.3,0.2-0.5,0.5-0.7
	c0.1-0.2,0.3-0.4,0.4-0.6c0.3-0.6,0.5-1.2,0.6-1.8c0.1-0.5,0-1.1-0.3-1.6c-0.2-0.3-0.5-0.7-0.8-1s-0.2-0.5-0.4-0.7
	c-0.1-0.2-0.2-0.4-0.4-0.5c-0.1-0.5-0.1-1-0.1-1.6c0-0.5-0.2-1-0.4-1.5c-0.7-0.4-1.4-0.8-2.1-1c-0.8-0.3-1.7-0.4-2.6-0.2
	C52.8,17.9,52,18,51.2,18l-2.4-0.2c-0.2,0-0.4,0-0.5,0.1C48.1,18,47.9,18,47.7,18c-0.7,0.1-1.3,0.2-2,0.1l-2-0.2
	c-0.5,0.2-1.1,0.3-1.6,0.2L40.4,18c-0.6,0-1.2,0-1.8,0c-0.5,0-1,0.3-1.4,0.7c-0.2,0.5-0.2,1.1-0.1,1.7c0.1,0.6,0.1,1.3,0,2
	c-0.3,0.2-0.5,0.4-0.8,0.6c-0.2,0.3-0.3,0.6-0.4,0.9c0.2,0.8,0.8,1.4,1.5,1.8c0.1,0.4,0.2,0.9,0.2,1.3c0,0.5,0,1-0.2,1.5
	c0,1.1,0.1,2.1,0.2,3.2c0.2,1.1,0.2,2.1,0.2,3.2c-0.1,0.5-0.1,1-0.2,1.6c-0.1,0.5,0.1,1,0.5,1.3c0.6,0.1,1.2,0.2,1.8,0.2
	c0.5,0,1.1,0,1.7,0c0.5,0.1,1.1,0.2,1.6,0.2c0.3-0.1,0.5-0.1,0.8-0.2c0.3-0.1,0.6-0.2,0.9-0.2c0.4,0,0.7,0,1.1,0s0.8,0,1.2,0
	c0.7-0.1,1.4-0.1,2.2-0.2c0.8-0.1,1.6,0,2.4,0.2c0.4-0.1,0.9-0.2,1.3-0.1c0.4,0.1,0.8,0,1.2-0.1c1-0.2,1.9-0.7,2.7-1.2L57.5,35.8z
	 M39.6,72.9c-0.1-0.5,0.1-0.7,0.5-0.7c0.3,0,0.6,0.1,0.8,0.4c0,0.8-0.2,1.5-0.7,2.1c-0.5,0.5-1.1,0.9-1.8,1.1
	c-0.4,0-0.9,0.1-1.2,0.3c-0.1,0.1-0.3,0.2-0.5,0.2c-0.2,0-0.4-0.1-0.5-0.2c-0.1-0.2-0.2-0.3-0.4-0.4c0.3-0.7,0.8-1.3,1.3-1.8
	c0.3-0.3,0.8-0.4,1.2-0.5C38.9,73.4,39.3,73.2,39.6,72.9z M44.6,20.1c0,0.7-0.5,1.3-1.2,1.4c-0.6,0.1-1.1,0.4-1.5,0.8
	c-0.2,1.2-0.6,2.4-1.2,3.4c-0.7-0.2-1.2-0.8-1.4-1.5c-0.1-0.7-0.1-1.3,0.1-2c0.1-0.6,0.4-1.2,0.8-1.7c0.4-0.5,0.9-0.7,1.5-0.7
	c0.6,0.1,1.2,0.1,1.7,0C43.9,19.7,44.4,19.8,44.6,20.1L44.6,20.1z M43.2,53.8c0.3,0,0.7,0,1.1,0c0.3,0,0.7,0,1,0
	c0.2,0,0.5,0.1,0.6,0.3c0.1,0.2,0.1,0.4-0.1,0.8c-0.3-0.1-0.7,0-1,0.1c-0.3,0.1-0.7,0.2-1,0.2c-0.5-0.1-1.1-0.1-1.6,0.1
	c-0.2,0.2-0.5,0.3-0.8,0.3c-0.1,0.8-0.1,1.5-0.2,2.3c0,0.7-0.5,1.3-1.1,1.5c-0.5-0.4-0.8-1-0.8-1.6v-1.9c0-0.7,0.3-1.4,1-1.9
	c0.7-0.4,1.4-0.5,2.2-0.4L43.2,53.8z M64.3,40.1c0.3-0.7,0.6-1.5,0.7-2.3c0.1-0.9,0.2-1.7,0.2-2.6c-0.1-0.2-0.2-0.4-0.4-0.5
	c-0.1-0.1-0.2-0.3-0.4-0.4c-0.3,0.7-0.7,1.4-1,2.1c-0.3,0.7-0.8,1.3-1.3,1.8c-0.2,0.3-0.5,0.5-0.9,0.6c-0.4,0.1-0.7,0.3-1,0.6
	c-0.6,0.3-1.1,0.6-1.5,1c-0.3,0.3-0.4,0.6-0.5,1c0.5,0.3,0.9,0.6,1.2,1c0.4,0.4,0.9,0.5,1.4,0.4c0.8-0.2,1.5-0.5,2-1.1
	C63.4,41.2,63.9,40.6,64.3,40.1z M65.3,30.7c0.3-0.1,0.5-0.3,0.6-0.6c0.2-0.3,0.3-0.7,0.2-1c0-0.3-0.1-0.7-0.3-1
	c-0.2-0.3-0.5-0.4-0.8-0.4c-0.1,0.1-0.3,0.3-0.6,0.6c-0.3,0.2-0.5,0.5-0.6,0.9c-0.1,0.3-0.2,0.7-0.1,1c0.1,0.3,0.4,0.5,0.7,0.6
	L65.3,30.7z M91.6,74.5c0.1,0.2,0.1,0.5,0.2,0.7c0.1,0.2,0.1,0.5,0,0.8c-0.2,0.4-0.5,0.7-0.9,0.9c-0.4,0.2-0.8,0.4-1.3,0.5
	c-0.2,0-0.4,0-0.7,0c-0.2,0-0.4,0-0.6,0c-0.7,0.1-1.4,0.3-2,0.6c-0.7,0.3-1.4,0.4-2.1,0.5c-0.4,0.1-0.7,0.1-1.1,0
	c-0.3-0.1-0.8-0.2-1.4-0.3l-1-0.4c0,0.5-0.3,0.9-0.7,1.2c-0.5,0.3-1,0.3-1.5,0c-0.4-0.5-0.5-1.1-0.2-1.7c0.3-0.6,0.9-0.8,1.8-0.4
	c0.4-0.1,0.8-0.2,1.1-0.2c0.4,0,0.8-0.1,1.2-0.2c0.5-0.1,0.9-0.2,1.4-0.2c0.2,0,0.4,0,0.6,0c0.4-0.1,0.7-0.1,1.1,0
	c0.1,0.1,0.2,0.1,0.3,0.1c0.6-0.2,1.3-0.4,1.9-0.6c0.4-0.1,0.7-0.2,1-0.4c0.1-0.3,0.2-0.7,0.4-1c0.2-0.3,0.3-0.6,0.3-1
	c0-0.6-0.1-1.2-0.3-1.7c-0.2-0.5-0.2-1.1,0-1.6c0.5-0.2,0.8-0.1,1,0.4s0.3,1.1,0.5,1.7c0.3,0.4,0.6,0.9,0.8,1.3V74.5z M93.9,36.8
	c0,0.3,0,0.5-0.1,0.8c-0.1,0.2-0.1,0.4-0.2,0.7c0,0.2,0,0.3,0,0.5c0,0.2,0,0.4,0.1,0.5c-0.1,0.4-0.2,0.9-0.3,1.3L93,41.7
	c0,1-0.3,2-0.8,2.8c-0.4,0.8-0.9,1.6-1.4,2.4c-0.2,0.1-0.4,0.2-0.5,0.4c-0.2,0.2-0.4,0.4-0.6,0.6c-0.3,0.1-0.5,0.3-0.8,0.4
	c-0.2,0.1-0.5,0.3-0.7,0.5c-0.1,0.1-0.2,0.3-0.3,0.4c-0.1,0.2-0.2,0.3-0.3,0.4c-0.3,0.2-0.5,0.3-0.8,0.4c-0.3,0.2-0.6,0.2-0.7,0.1
	c-0.6-0.7-0.8-1.1-0.6-1.3c0.2-0.2,0.4-0.5,0.5-0.8c0.1-0.2,0.2-0.5,0.3-0.7c0.1-0.2,0.2-0.4,0.3-0.6c0.7-0.2,1.3-0.5,1.9-0.9
	c0.6-0.3,1.1-0.7,1.7-1c0.2-0.5,0.5-1,0.9-1.6c0.3-0.6,0.5-1.2,0.6-1.9c0-0.2,0-0.4,0-0.5c0-0.2,0-0.4,0-0.6
	c0.1-0.5,0.2-1.1,0.4-1.7s0.2-1.1,0.3-1.6c0.1-0.4,0.1-0.8,0-1.1c-0.1-0.4-0.1-0.8-0.1-1.1c0-0.6,0.1-1.2,0.2-1.8
	c0.1-0.6,0.2-1.2,0.4-1.8c0.5,0,0.8,0.1,0.8,0.4s0.1,0.7,0.1,1.2c0.1,0.6,0.2,1.2,0.2,1.9L93.9,36.8z M90.4,12.5c-0.1-1-0.4-2-1-2.8
	c-0.6-0.8-1.2-1.5-1.8-2.1c0-0.3-0.1-0.6-0.2-0.9c-0.2-0.3-0.1-0.5,0.3-0.6c0.9-0.1,1.8,0.1,2.4,0.8c0.7,0.6,1.3,1.3,1.8,2.1
	C92,9.2,92,9.5,92.1,9.6c0.1,0.2,0.1,0.5,0.2,0.7c0.2,0.2,0.3,0.4,0.3,0.6c0.1,0.3,0,0.6-0.1,0.9c-0.1,0.3-0.3,0.5-0.5,0.7
	c-0.2,0.2-0.4,0.4-0.7,0.4L90.4,12.5z"/>
<path id="o" class="st0" d="M103.8,31.5c0.1,1,0,2-0.1,3c-0.1,0.8-0.4,1.5-0.9,2c-0.7,0.1-1.1-0.1-1.1-0.8c-0.1-0.6-0.1-1.1,0-1.7
	c0-0.4,0-0.8,0-1.2c0-0.4,0.1-0.8,0.4-1.1c0.1-0.3,0.4-0.4,0.7-0.4C103.2,31.5,103.5,31.5,103.8,31.5z M203.2,43.6
	c0,0.2-0.1,0.5-0.1,0.7c-0.1,0.2-0.1,0.4-0.1,0.7c-0.1,0.3-0.1,0.7-0.1,1c0,0.3-0.2,0.7-0.4,0.9c0.1,0.5,0.1,0.9-0.1,1.4
	c-0.1,0.4-0.1,0.9,0,1.3c-0.5,0.7-0.8,1.5-0.9,2.3c-0.1,0.8-0.3,1.6-0.5,2.4l-0.4,0.9c-0.1,0.3-0.3,0.6-0.4,0.9
	c-0.2,0.5-0.4,1-0.5,1.3s-0.3,0.8-0.5,1.1c-0.3,0.4-0.5,0.8-0.7,1.2c0,0.2-0.1,0.4-0.2,0.6c-0.3,0.5-0.7,1-1.1,1.4
	c-0.4,0.4-0.8,0.9-0.9,1.5l-0.8,0.8c-0.3,0.3-0.5,0.5-0.7,0.9c-1.2,0.8-2.3,1.7-3.3,2.8c-1,1.1-2.1,2-3.3,2.8
	c-1.3,0.5-2.6,1.2-3.8,2.1c-1.2,0.9-2.5,1.5-3.9,2c-0.6,0.4-1.2,0.7-1.9,0.9c-0.7,0.2-1.4,0.5-2.1,0.8c-0.3,0.1-0.7,0.3-1.1,0.5
	c-0.4,0.2-0.8,0.3-1.3,0.4c-0.2,0-0.4,0-0.6,0c-0.2,0-0.4,0-0.5,0c-0.2,0.1-0.4,0.1-0.5,0.2c-0.2,0.1-0.3,0.2-0.5,0.2
	c-0.3,0.1-0.5,0.1-0.8,0.1c-0.3,0-0.6,0.1-0.9,0.2c-0.5,0.2-1.1,0.3-1.6,0.3c-0.3,0-0.6,0-0.9,0c-1.7,0.2-3.3,0.3-5,0.3
	c-1.7,0-3.3,0.1-5,0.4c-0.4-0.2-0.9-0.3-1.4-0.2c-0.6,0.1-1.1,0.1-1.8,0.2s-1.2,0.2-1.8,0.2c-0.6,0-1.1,0-1.7-0.2
	c-0.3-0.1-0.6-0.3-0.8-0.6c-0.2-0.3-0.5-0.5-0.8-0.7c-0.3-0.2-0.6-0.3-1-0.4c-0.3-0.1-0.7-0.2-1-0.3c-0.8,0.3-1.6,0.6-2.4,0.9
	c-0.8,0.3-1.7,0.5-2.6,0.3c-0.6-0.1-1.1-0.2-1.7-0.3h-0.8c-1.1,0-2.1,0-3.2-0.1c-1-0.1-2.1-0.3-3.1-0.6c-2.1-0.3-4.1-0.9-6-1.9
	c-1.8-0.9-3.7-1.7-5.6-2.4c-0.7-0.5-1.4-1-2.1-1.6c-0.7-0.6-1.4-1.1-2.3-1.4c-0.9-0.9-1.8-1.8-2.7-2.7l-2.8-2.6
	c-0.4-0.6-0.7-1.2-1.1-1.8l-1.1-2c-0.3-0.7-0.6-1.4-1-2.1s-0.7-1.4-1-2.1c-0.6-0.7-1-1.6-1.3-2.5c-0.2-0.6-0.3-1.3-0.5-2
	c-0.1-0.3-0.3-0.6-0.4-0.9c-0.1-0.3-0.3-0.6-0.3-0.8c-0.2-0.4-0.3-0.9-0.4-1.3c-0.1-0.4-0.1-0.9,0.1-1.3c-0.4-0.5-0.5-1.2-0.6-1.8
	c-0.1-0.7,0-1.5,0.1-2.2c0.1-1,0-1.9-0.1-2.9c-0.2-0.9-0.1-1.8,0.1-2.7c0.2-0.8,0.6-1.6,1.1-2.3c0.5-0.7,0.6-1.6,0.4-2.5
	c-0.1-0.5-0.2-1.1-0.5-1.6c-0.2-0.6-0.2-1.2,0-1.8c0.1-0.2,0.1-0.4,0.1-0.6c0-0.2,0.1-0.4,0.2-0.6c0.1-0.3,0.3-0.6,0.4-1
	c0.2-0.4,0.3-0.8,0.2-1.2c0.5-0.8,1-1.5,1.6-2.2s1.1-1.4,1.7-2.1c0.2-0.3,0.5-0.6,0.7-0.9c0.2-0.3,0.5-0.6,0.8-0.9
	c0.2-0.3,0.5-0.5,0.9-0.7c0.3-0.2,0.6-0.3,1-0.4c0.3-0.1,0.7-0.1,1-0.3c0.4-0.2,0.8-0.5,1.1-0.9c0.4-0.4,0.7-0.8,1-1.2
	c0.5-0.6,0.9-1.3,1.3-2c0.4-0.7,0.8-1.4,1.3-2.2l1-0.6c0.4-0.2,0.7-0.5,1.1-0.8c0.7-0.3,1.4-0.8,2-1.2c0.7-0.6,1.5-1,2.4-1.5
	c0.4-0.2,0.7-0.4,1.1-0.6c0.4-0.2,0.8-0.4,1.3-0.7l1.9-0.9c0.6-0.3,1.2-0.5,1.9-0.7c2.3-0.7,4.6-1.2,6.9-1.5c0.3-0.1,0.7-0.2,1-0.2
	c0.3,0,0.7-0.1,1-0.2c1.1-0.1,2.1-0.2,3.1-0.4c1-0.2,2.1-0.4,3.1-0.4c0.5-0.1,1-0.1,1.5-0.1s1-0.1,1.6-0.1c0.3-0.1,0.7-0.1,1-0.2
	c0.3-0.1,0.7-0.1,1.1-0.1c0.3,0,0.5,0,0.8,0.1c0.3,0.1,0.6,0.1,0.9,0.1c0.6,0,1.3,0,1.9-0.1c0.6-0.1,1.2-0.1,1.8,0
	c0.8,0,1.7,0,2.5,0.1l2.7,0.3c0.7,0.1,1.4,0.3,2.1,0.5s1.4,0.4,2.1,0.7c0.5,0.2,1,0.4,1.5,0.5c0.5,0.2,1.1,0.3,1.7,0.3
	c0.4,0.4,0.8,0.7,1.3,1c0.5,0.2,1.1,0.4,1.6,0.6c0.5,0.1,0.9,0.3,1.3,0.5c0.4,0.2,0.8,0.4,1.2,0.5c1,0.2,2,0.3,3,0.3
	c0.9,0,1.8,0.3,2.7,0.7c0.2,0.1,0.5,0.3,0.7,0.5c0.2,0.2,0.5,0.4,0.8,0.5l0.7,0.4c0.2,0.1,0.5,0.3,0.7,0.4c0.2,0.1,0.4,0.2,0.7,0.4
	c0.2,0.1,0.4,0.2,0.7,0.4l0.8,0.4c0.3,0.1,0.6,0.2,0.8,0.4c0.1,0.1,0.3,0.3,0.4,0.5c0.2,0.2,0.3,0.4,0.4,0.5
	c0.4,0.3,0.8,0.6,1.2,0.9c0.4,0.3,0.9,0.6,1.3,0.9c0.7,0.9,1.5,1.6,2.4,2.3c0.9,0.6,1.8,1.3,2.6,2.1c0.1,0.1,0.3,0.3,0.4,0.5
	c0.1,0.2,0.2,0.3,0.4,0.5c0.1,0.2,0.2,0.4,0.4,0.6l0.4,0.4c0.2,0.3,0.4,0.6,0.5,1c0.2,0.3,0.4,0.6,0.7,0.8c0.3,0.4,0.5,0.9,0.7,1.3
	c0.2,0.5,0.5,0.9,0.8,1.4c0.1,0.2,0.3,0.4,0.5,0.5c0.2,0.1,0.3,0.3,0.3,0.5c0,0.4,0,0.8-0.2,1.2c-0.2,0.4-0.2,0.9,0,1.4
	c0.1,0.2,0.3,0.4,0.6,0.5c0.2,0.1,0.5,0.2,0.7,0.3l0.9,1.2c0.3,0.4,0.4,0.9,0.5,1.5c0.1,0.2,0.1,0.4,0,0.6c-0.1,0.2-0.1,0.5-0.1,0.7
	c0.1,0.4,0.2,0.8,0.3,1.1c0.2,0.4,0.3,0.8,0.3,1.2c0.1,0.2,0.1,0.5,0.1,0.8c0,0.2,0,0.4-0.1,0.7c0.1,0.7-0.2,1.4-0.6,2
	c-0.4,0.5-0.6,1.1-0.4,1.8c0.1,0.2,0.2,0.3,0.4,0.4c0.2,0.1,0.3,0.3,0.4,0.4c0.2,0.2,0.3,0.5,0.3,0.7
	C203.2,43,203.2,43.3,203.2,43.6z M106,24.2c-0.1-0.8,0-1.5,0.4-2.2l1-1.3c0.2-0.4,0.4-0.9,0.6-1.3c0.2-0.4,0.3-0.8,0.5-1.2
	c0.3-0.4,0.7-0.7,1.1-1c0.4-0.3,0.8-0.6,1.2-1c0.3-0.3,0.6-0.6,0.8-1s0.5-0.7,0.8-1c0.6-1.2,1.5-2.2,2.7-3c1.2-1.4,2.6-2.5,4.3-3.1
	c0.3,0.4,0.3,0.8,0.2,1c-0.1,0.2-0.2,0.5-0.2,0.8c-1.1,1-2.1,2.1-2.8,3.3c-0.5,0.4-1,1-1.3,1.6c-0.2,0.4-0.6,0.8-1,1
	c-0.2,0.1-0.3,0.2-0.5,0.2c-0.2,0-0.4,0.1-0.5,0.3c-0.3,0.2-0.5,0.4-0.8,0.7c-0.2,0.3-0.5,0.6-0.8,0.9c-0.2,0.3-0.5,0.6-0.8,0.8
	c-0.3,0.3-0.5,0.5-0.7,0.9c-0.5,0.7-1,1.4-1.6,2.1c-0.4,0.4-0.7,0.8-1,1.3c-0.2,0.3-0.4,0.6-0.5,0.9C106.8,24,106.4,24.2,106,24.2z
	 M116.8,24.6c0.4,0,0.8-0.2,1-0.5c0.3-0.4,0.5-0.9,0.6-1.4c-0.1-0.3-0.4-0.6-0.7-0.7c-0.3-0.1-0.5-0.5-0.5-0.8
	c-0.5,0.2-1,0.5-1.4,0.8c-0.4,0.4-0.6,1.1-0.4,1.7c0.3,0,0.6,0.2,0.7,0.4C116.2,24.4,116.5,24.6,116.8,24.6z M121.7,74.4
	c0.5,0.3,0.9,0.6,1.3,1c0.4,0.3,0.2,0.7-0.5,1c-1,0-2-0.4-2.7-1c-0.7-0.6-1.5-1.1-2.4-1.3c-0.3-0.3-0.6-0.6-0.9-0.8
	c-0.3-0.2-0.5-0.5-0.7-0.8c0-0.3,0-0.7,0.1-1c0.1-0.3,0.4-0.4,0.8-0.3c0.4,0.1,0.8,0.2,1.1,0.4c0.4,0.4,0.8,0.7,1.3,0.9
	c0.2,0,0.4,0.1,0.5,0.2c0.3,0.4,0.6,0.7,0.9,1C121,74,121.3,74.2,121.7,74.4z M127.2,14.1c0.1-0.3-0.1-0.7-0.3-0.9
	c-0.3-0.2-0.5-0.5-0.7-0.8c-0.3,0.1-0.6,0.2-0.9,0.3s-0.6,0.2-0.9,0.3c-0.7,0.3-1.3,0.8-1.8,1.4c-0.5,0.6-0.9,1.3-1.4,2
	c-0.3,0.4-0.6,0.9-1,1.3c-0.3,0.4-0.4,0.9-0.2,1.4c0.2,0.1,0.5,0.2,0.7,0.3c0.2,0,0.4,0.1,0.6,0.3c0.4-0.2,0.7-0.5,0.9-0.8l0.6-1
	l0.6-1c0.2-0.3,0.4-0.6,0.8-0.8c0.5-0.4,1-0.7,1.6-0.9C126.5,15.2,127,14.7,127.2,14.1z M162,81.6c0.3-0.1,0.7-0.2,1-0.2
	c0.4,0,0.7,0,1.1,0.1c0.3,0.5,0.2,0.9-0.2,1.1l-1.1,0.7c-0.6-0.1-1.1-0.2-1.7-0.1c-0.6,0-1.3,0-1.9,0c-0.6-0.1-1.1-0.3-1.7-0.5
	c-0.5-0.2-1.1-0.3-1.7-0.3c-0.6,0.8-1.5,1.3-2.5,1.3c-0.9,0-1.8,0-2.5-0.1l-1.9-0.2c-0.7-0.1-1.4-0.2-2.1-0.2
	c-0.9-0.1-1.8-0.2-2.8-0.2c-0.9,0-1.7-0.1-2.6-0.2c-0.5-0.2-0.9-0.2-1.4-0.2c-0.2,0-0.4,0-0.7,0c-0.4-0.1-0.8-0.1-1.2-0.2
	c-0.5-0.1-0.9-0.2-1.4-0.2c-0.4-0.1-0.9-0.2-1.3-0.2c-0.4,0-0.8-0.1-1.2-0.2c-0.7-0.1-1.4-0.4-2-0.8c-0.6-0.4-1.3-0.6-2-0.8
	c-0.5-0.1-0.9-0.2-1.4-0.3c-0.4-0.1-0.9-0.1-1.3-0.3c-0.4-0.1-0.7-0.4-1-0.7c-0.3-0.3-0.6-0.5-0.9-0.7c-0.2-0.4-0.4-0.8-0.4-1.2
	c-0.1-0.5,0.1-0.8,0.6-0.9c0.9,0.6,1.9,1.1,2.9,1.4c1,0.3,2,0.8,3,1.3c0.8,0.1,1.6,0.3,2.3,0.5c0.8,0.2,1.6,0.4,2.4,0.5
	c1.1,0.1,1.9,0.2,2.4,0.3c0.5,0.1,1,0.2,1.5,0.2c0.9,0.1,1.8,0.1,2.7,0.1c0.9-0.1,1.9-0.2,2.9-0.4c0.5-0.1,1-0.1,1.4,0.1
	c0.5,0.2,1,0.4,1.4,0.5c0.2,0.1,0.5,0.2,0.7,0.3c0.3,0,0.5,0.1,0.7,0.3c0.2,0.1,0.5,0.3,0.8,0.3c0.3,0.1,0.7,0.2,1.1,0.2
	c0.2,0,0.4,0,0.6,0c0.2,0,0.4,0,0.6-0.1c0.3,0,0.6,0,0.9,0.1c0.3,0,0.5,0,0.6,0c0.7-0.2,1.4-0.3,2.1-0.2c0.4,0.1,0.8,0.2,1.1,0.2
	c0.8-0.3,1.6-0.4,2.4-0.4C160.9,81.4,161.5,81.5,162,81.6L162,81.6z M131.1,63.4l1.1,0.4c0.4,0.2,0.7,0,0.8-0.6
	c-0.4-0.4-0.7-0.9-1-1.3c-0.3-0.6-0.6-1.2-0.6-1.9c-0.1-0.9-0.2-1.8-0.1-2.7c0.1-0.9,0-1.7-0.3-2.5c-0.1-0.5-0.3-0.9-0.6-1.3
	c-0.4-0.5-0.6-0.8-0.8-0.9c-0.3-0.1-0.6-0.1-0.9,0c-0.3,0.1-0.5,0.2-0.8,0.3c-0.1,0.2-0.2,0.5-0.3,1c0.2,0.5,0.4,1.1,0.8,1.5
	c0.4,0.5,0.8,0.9,1.1,1.5c0.3,0.6,0.4,1.2,0.3,1.8c-0.1,0.4-0.1,0.9-0.1,1.3c0,0.6,0.1,1.3,0.4,1.8
	C130.4,62.4,130.7,62.9,131.1,63.4z M128.6,47.5c-0.1,0.2-0.2,0.5-0.3,0.7c-0.1,0.3-0.1,0.6,0,0.9c0.3,0.3,0.7,0.4,1.1,0.3
	c0.4-0.1,0.7-0.3,0.7-0.7c0.1-0.4-0.1-0.8-0.4-1C129.4,47.5,129,47.4,128.6,47.5L128.6,47.5z M173.9,40.6c0.1-0.3,0.1-0.7,0.1-1v-1
	c0.1-0.9,0.1-1.7,0-2.6c0-0.8-0.2-1.5-0.6-2.2c-0.1-0.3-0.2-0.5-0.3-0.6c-0.1-0.2-0.2-0.5-0.2-0.7c0-0.7,0-1.4,0.1-2.1
	s0.1-1.4,0.1-2.1c0-1.2-0.1-2.3-0.2-3.5c-0.1-1.1-0.2-2.1-0.4-3.1c-0.5-1.1-1.2-2.1-2-2.9c-0.7-0.6-1.5-1.1-2.4-1.4
	c-0.5-0.1-1-0.2-1.5-0.1c-0.5,0-1-0.1-1.5-0.2c-0.2-0.1-0.4-0.3-0.6-0.5c-0.1-0.2-0.3-0.4-0.6-0.5c-0.7-0.5-1.7-0.6-2.5-0.1
	c-0.8,0.4-1.5,0.8-2.2,1.1c-1.1-0.2-2.3-0.3-3.4-0.2c-1.1,0-2.2,0-3.3-0.1c-0.3,0-0.6-0.2-0.8-0.5c-0.2-0.3-0.5-0.5-0.8-0.7
	c-0.4-0.1-0.9-0.2-1.3-0.1c-0.3,0-0.7,0.1-1,0.3c-0.2,0.2-0.5,0.5-0.6,0.7c-0.2,0.2-0.4,0.4-0.6,0.5c-0.3,0.1-0.5,0.1-0.8,0
	c-0.3-0.1-0.5-0.1-0.8-0.1c-0.6,0.1-1.3,0.2-1.9,0.4c-0.6,0.2-1.2,0.4-1.7,0.5c-0.4,0.1-0.8,0.2-1.1,0.2c-0.3,0-0.6,0.2-0.9,0.3
	c-0.8,0.3-1.5,0.8-2.1,1.3c0.1,0.3,0,0.5-0.3,0.7c-0.2,0.1-0.5,0.3-0.7,0.5c-0.2,0.3-0.4,0.6-0.5,1c-0.1,0.4-0.2,0.7-0.5,1
	c0.1,0.9,0.1,1.8-0.1,2.7c-0.2,0.9-0.3,1.9-0.4,2.8c-0.1,1.1-0.2,2.2-0.1,3.2c0,1.1,0,2.2,0,3c0,0.2,0,0.5,0.1,0.7
	c0.1,0.2,0.1,0.5,0.1,0.7c0,0.4,0,0.9,0,1.3c0,0.3,0,0.5,0,0.8c0,0.3,0,0.7-0.1,1c-0.1,0.2-0.2,0.6-0.3,1c-0.4,1-0.8,1.8-1.1,2.6
	c-0.3,1.5-0.5,3-0.9,4.8c-0.3,1.5-0.2,3,0.3,4.5c0.1,0.3,0.3,0.5,0.6,0.6c0.2,0.1,0.4,0.3,0.6,0.5c0.1,0.2,0.2,0.4,0.2,0.6
	c0,0.3,0.1,0.6,0.1,0.9c0.3,1,0.4,2.1,0.5,3.1c0,1,0.3,1.9,0.9,2.8c0.7,0.7,1.4,1.3,2.3,1.8c0.3,0.1,0.6,0.2,0.9,0.4
	c0.2,0.1,0.5,0.2,0.9,0.4c1,0.3,2.1,0.5,3.1,0.4c1.1,0,2.2,0,3.3,0.2c0.6,0.2,1.3,0.2,1.9,0.2c0.4-0.1,0.9-0.1,1.3,0
	c0.2,0.1,0.5,0.2,1.1,0.3c0.2,0.1,0.4,0.1,0.6,0.1c0.2,0,0.4,0.1,0.6,0.1c0.3,0,0.7,0,1,0c0.3,0,0.6,0,0.9,0
	c0.4,0.1,0.8,0.2,1.1,0.2c0.9,0,1.9-0.1,2.8-0.4c0.9-0.2,1.8-0.4,2.8-0.4c0.3,0,0.7,0,1,0.1c0.3,0.1,0.6,0.1,0.9,0.1l3.4-0.3
	c0.7-0.1,1.4-0.3,2-0.6l1.4-0.9c0.4-0.3,0.8-0.6,1.2-1c0.1-0.2,0.3-0.5,0.3-0.7c0.1-0.3,0.2-0.5,0.3-0.7c0.2-0.2,0.4-0.3,0.6-0.4
	c0.2-0.1,0.4-0.3,0.5-0.5c0.2-0.5,0.3-1.1,0.3-1.7c0-0.6,0-1.2,0.1-1.9c0.1-0.6,0.1-1.3,0.1-1.9s0.1-1.3,0.1-1.9c0-0.5,0-1,0.1-1.6
	c0.1-0.5,0.1-1.1,0.2-1.7c0.1-0.7,0-1.5-0.1-2.2c-0.1-0.8-0.2-1.6-0.1-2.4c0-0.6,0.1-1.1,0.2-1.7C173.6,41.4,173.8,41,173.9,40.6
	L173.9,40.6z M140.2,75.2c0.6-0.1,1.2-0.1,1.7-0.2c0.5-0.1,0.9-0.3,1.2-0.6c-0.3-0.6-0.8-1-1.3-1.4c-0.4-0.2-0.9-0.3-1.4-0.3
	c-1,0-1.9,0.1-2.9,0.2c-0.8,0.1-1.5,0.5-1.9,1.1c0.6,0.5,1.3,0.8,2,0.9C138.5,75.1,139.3,75.2,140.2,75.2z M168.5,28.5
	c0.1-1,0.2-1.7,0.3-2.2c0.1-0.5,0.1-1,0-1.5c-0.1-0.3-0.2-0.7-0.2-1c0-0.2,0-0.3-0.1-0.5c-0.2-0.4-0.6-0.8-1.1-1
	c-0.5-0.2-1-0.4-1.6-0.5c-0.4-0.1-0.8-0.3-1.1-0.4c-0.4-0.2-0.7-0.3-1.1-0.3c-0.4-0.1-0.9-0.1-1.3,0c-0.5,0.1-0.9,0.1-1.4,0
	c-0.6-0.1-1.2-0.1-1.8,0c-0.3,0.1-0.7,0.2-1,0.2c-0.5,0-1-0.2-1.5-0.4c-0.4-0.2-0.7-0.6-0.8-1c0-0.2,0.1-0.5,0.2-0.7
	c0.1-0.1,0.2-0.3,0.2-0.5c0.2-0.3,0.6-0.4,0.9-0.2c0.3,0.2,0.6,0.3,1,0.4c0.4,0.1,0.8,0.1,1.2,0c0.5-0.2,0.9-0.2,1.4-0.1
	c0.2,0,0.4,0,0.6,0.1c0.2,0.1,0.5,0.1,0.8,0.1c0.4,0.1,0.8,0.1,1.2,0c0.4-0.1,0.7-0.1,1.1-0.1c0.2,0,0.4,0,0.6,0.1
	c0.2,0.1,0.4,0.1,0.7,0.2c0.3,0,0.7,0,1,0.1c0.3,0.2,0.6,0.4,0.9,0.5c0.1,0,0.3,0,0.4,0.1c0.3,0.1,0.6,0.3,0.8,0.6
	c0.2,0.3,0.5,0.5,0.8,0.6c0.2,0.6,0.4,0.9,0.5,1c0.2,0.1,0.3,0.2,0.4,0.3c-0.1,0.2-0.1,0.5,0,0.7c0.1,0.2,0.1,0.5,0.1,0.7
	c-0.1,0.4-0.2,0.8-0.4,1.2c-0.1,0.4-0.2,0.7-0.3,1.1c-0.1,0.7-0.1,1.4,0.1,2.1c0.2,0.7,0.2,1.4,0,2.1c-0.7-0.4-1.1-0.7-1.1-0.9
	C168.7,29,168.6,28.7,168.5,28.5z M169.5,32.7c0.6,0.3,1.1,0.7,1.4,1.2c0.4,0.6,0.5,1.3,0.2,1.9c-0.1,0.3-0.3,0.7-0.5,1.1
	s-0.4,0.7-0.5,0.7c-0.4-0.1-0.7-0.3-0.9-0.6c-0.3-0.2-0.5-0.6-0.5-1c-0.1-0.4,0-0.8,0.1-1.1c0.1-0.5,0.2-0.8,0.3-1.1
	c0.1-0.2,0.1-0.5,0.1-0.7C169.2,33,169.3,32.8,169.5,32.7L169.5,32.7z M178.9,24.4c0.4-0.8,0.6-1.7,0.6-2.6
	c-0.3-0.6-0.6-1.1-0.8-1.8c-0.2-0.6-0.5-1.2-0.8-1.8c-0.5-0.1-0.9-0.3-1.3-0.6c-0.4-0.3-0.8-0.2-1.1,0.3c0.1,0.4,0.3,0.8,0.6,1.1
	c0.3,0.4,0.5,1,0.6,1.5c0,0.2,0,0.4-0.1,0.6c-0.1,0.2-0.1,0.4,0,0.6c0,0.4,0,1,0.1,1.7s0.2,1.2,0.4,1.2c0.3,0.1,0.7,0.1,1-0.2
	C178.3,24.5,178.6,24.4,178.9,24.4L178.9,24.4z M193,61c0.7-0.9,1.4-1.7,2.1-2.5c0.7-0.9,1.1-2.1,1.2-3.3c-0.4-0.3-0.9-0.4-1.4-0.3
	c-0.4,0.1-0.8,0.4-1.1,0.7c-0.3,0.3-0.6,0.7-0.8,1.1c-0.2,0.4-0.4,0.8-0.6,1.2c-0.4,0.6-0.9,1.1-1.4,1.6c-0.5,0.5-1.1,1-1.6,1.5
	c-0.4,0-0.8,0.2-1.1,0.5c-0.3,0.3-0.5,0.7-0.6,1.1c-0.1,0.4-0.1,0.8,0.1,1.2c0.1,0.4,0.4,0.6,0.8,0.8c0.2,0.1,0.4,0.1,0.6,0
	c0.2-0.1,0.5-0.1,0.8-0.1c0.3-0.2,0.6-0.5,1-0.6c0.3-0.2,0.6-0.4,0.7-0.7c0.1-0.3,0.2-0.6,0.5-0.8c0.1-0.1,0.3-0.2,0.4-0.3
	C192.8,61.6,192.9,61.2,193,61L193,61z M197.6,64.8c0.3-0.2,0.7-0.3,1.1-0.3c0.4-0.1,0.7,0.1,1,0.3c-0.1,0.4-0.3,0.9-0.4,1.3
	c-0.1,0.4-0.4,0.8-0.6,1.1c-0.5,0.4-1,0.8-1.4,1.4c-0.1,0.3-0.3,0.5-0.5,0.7c-0.5,0.4-1,0.8-1.6,1.2c-0.6,0.4-1.1,0.8-1.5,1.4
	c-0.9,0.4-1.8,0.9-2.5,1.5c-0.9,0.7-2,0.9-3.1,0.7c-0.3-0.4-0.3-0.7,0-1c0.3-0.3,0.6-0.5,0.9-0.6c0.3-0.4,0.7-0.8,1.2-1
	c0.5-0.2,0.9-0.6,1.1-1.1c1.8-0.9,3.5-2.1,4.9-3.5c0.1-0.3,0.3-0.7,0.5-1.2C197,65.3,197.3,65,197.6,64.8z M198,50.8
	c0.4-0.5,0.4-1.3-0.1-1.8c-0.3-0.5-0.9-0.7-1.5-0.6c-0.4,0.1-0.7,0.4-0.9,0.8c-0.2,0.4-0.3,0.9-0.2,1.3c0,0.4,0.2,0.7,0.5,1
	c0.3,0.2,0.7,0.3,1,0.2c0.2-0.1,0.4-0.3,0.5-0.4L198,50.8z M200.3,62.8c-0.4-0.4-0.3-0.8,0.1-1.2c0.3-0.3,0.7-0.5,1.2-0.5
	c0.1,0.3,0.2,0.6,0.2,0.9c0,0.3,0,0.5-0.1,0.8c-0.1,0.3-0.4,0.4-0.7,0.3C200.8,63,200.5,62.9,200.3,62.8L200.3,62.8z"/>
<path id="k" class="st0" d="M227.3,75.4c0.4,0.1,0.8,0.3,1.1,0.5c0.4,0.2,0.6,0.6,0.7,1c-0.4,0.2-0.9,0.3-1.4,0.3l-1.5-0.2
	c-0.5-0.1-1-0.1-1.5,0s-1,0.1-1.5,0c-0.3-0.1-0.5-0.2-0.7-0.3c-0.2-0.1-0.4-0.2-0.6-0.2c-0.6-0.1-1.2-0.1-1.9,0
	c-0.6,0.1-1.3,0.1-1.9,0c-0.4-0.1-0.7-0.1-1.1,0c-0.1,0.1-0.3,0.1-0.4,0c-0.4,0-0.9-0.2-1.2-0.4c-0.3-0.3-0.7-0.5-1.1-0.6
	c-0.3-0.7-0.5-1.5-0.6-2.2c-0.2-0.8,0-1.6,0.5-2.2c0.8,0.3,1.1,0.7,1.2,1c0.1,0.5,0.3,0.9,0.5,1.3c0.5,0.6,1.2,1,2,1
	c1,0.1,2,0.3,2.9,0.6c0.5,0.1,1.1,0.2,1.7,0.4c0.5,0.1,1.1,0.2,1.7,0.2c0.2,0,0.5,0,0.7,0c0.2,0,0.4,0,0.6,0c0.3-0.1,0.7-0.1,1,0
	C226.6,75.5,227,75.5,227.3,75.4z M215.8,49.3c-0.7-1.1-0.9-2.5-0.6-3.8c0.3-1.2,0.6-2.5,0.8-3.7c0.2-1.1,0.2-2.3,0.1-3.4
	c-0.1-1.2-0.1-2.3,0-3.5c0.1-0.4,0.2-0.8,0.3-1.1s0.2-0.8,0.3-1.2c0.4,0.2,0.7,0.5,1,0.8l0.2,0.6c0.1,0.5,0,1-0.1,1.5
	c-0.1,0.5-0.1,1,0,1.5c0.3,1.6,0.4,3.2,0.2,4.8c-0.2,1.5-0.5,3-1,4.5c-0.6,0.3-1,0.9-1.2,1.6C216,48.3,215.9,48.8,215.8,49.3z
	 M298.2,74.7c0.1,0.3,0.1,0.7-0.1,1c-0.2,0.3-0.3,0.5-0.4,0.9c-0.3,0.2-0.6,0.4-0.8,0.5c-0.3,0.2-0.5,0.3-0.8,0.4
	c-0.3,0.1-0.7,0.1-1,0c-0.4-0.1-0.8-0.1-1.1,0c-0.3-0.1-0.6-0.2-0.9-0.2c-0.3,0-0.6-0.1-1-0.1c-0.6,0-1.1,0-1.7,0
	c-0.6,0-1.2,0-1.9,0c-0.7,0-1.3,0-2-0.1c-0.6-0.1-1.1-0.1-1.7-0.1c-0.5,0-1,0.1-1.5,0.2c-0.4,0.2-0.8,0-1-0.4c0-0.1,0-0.1,0-0.2
	c-0.5-0.2-1.1-0.3-1.6-0.4c-0.5-0.1-0.9-0.3-1.3-0.6c-0.2-0.1-0.3-0.3-0.4-0.5c-0.1-0.2-0.2-0.4-0.3-0.6l-1-1.3
	c-0.3-0.4-0.6-0.9-0.9-1.4c-0.3-0.5-0.5-1.1-0.6-1.7c-0.2-0.6-0.7-1.1-1.3-1.4c-0.2-0.2-0.4-0.4-0.5-0.7c-0.1-0.2-0.2-0.5-0.4-0.7
	c-0.1-0.1-0.3-0.2-0.5-0.3c-0.2-0.1-0.3-0.2-0.5-0.3c-0.1-0.2-0.3-0.4-0.4-0.7c-0.1-0.2-0.3-0.5-0.5-0.7c-0.8-1.1-1.6-2.1-2.4-3.1
	c-0.8-1.1-1.5-2.2-2.2-3.3c-0.3-0.5-0.7-0.9-1-1.3c-0.3-0.4-0.6-0.8-0.8-1.3c-0.1-0.3-0.2-0.7-0.2-1.1c0-0.4-0.1-0.8-0.3-1.1
	c-0.1-0.3-0.3-0.5-0.5-0.7l-0.6-0.6c-0.2-0.1-0.3-0.1-0.5-0.2c-0.2,0-0.4-0.1-0.5-0.3c-0.3-0.3-0.6-0.7-0.8-1.1
	c-0.2-0.5-0.4-0.9-0.6-1.3c-0.3-0.7-0.7-1.4-1.1-2c-0.4-0.6-0.7-1.3-0.9-2c-0.3-0.3-0.6-0.6-0.8-1c-0.2-0.4-0.4-0.8-0.8-1.1l-4,3.3
	c-1.3,1.1-2.7,2.2-4,3.4c-0.2,1.4-0.4,2.8-0.3,4.2c0,1.4,0,2.8-0.1,4.2c-0.1,0.4-0.1,0.9,0,1.3c0.1,0.4,0,0.9-0.1,1.3
	c0,0.2-0.1,0.4-0.3,0.5c-0.2,0.2-0.3,0.4-0.4,0.6c-0.3,0.5-0.4,1.1-0.3,1.6c0,0.3,0.1,0.7,0.2,1c0.2,0.3,0.3,0.7,0.3,1
	c0.1,0.2,0.1,0.5,0,0.8c0,0.3-0.1,0.6,0,0.8c0,0.3,0,0.7,0,1s0,0.7,0,1s-0.1,0.4-0.2,0.6c-0.1,0.2-0.1,0.4-0.1,0.6
	c0,0.6-0.1,1.1-0.5,1.5c-0.3,0.3-0.6,0.6-1,0.8l-1,0.5c-0.2,0.1-0.5,0.2-0.8,0.3c-0.6,0.1-1.3,0.1-1.9,0.1c-0.6,0-1.3-0.1-1.9-0.2
	c-0.2,0-0.4-0.1-0.6-0.3c-0.2-0.1-0.3-0.3-0.5-0.4c-0.2-0.1-0.3-0.3-0.5-0.4c-0.3-0.1-0.5-0.3-0.7-0.5c-0.4-0.3-0.7-0.5-1-0.6
	c-0.3-0.2-0.7-0.3-1.1-0.3c-0.4,0-0.9,0-1.4,0c-0.5,0-0.9,0.1-1.3,0.2c-0.4,0.2-0.7,0.4-1,0.6c-0.3,0.2-0.7,0.4-1.1,0.5
	c-0.9-0.1-1.5-0.2-1.7-0.2c-0.3,0-0.6-0.1-0.9-0.2c-0.6-0.1-1.1-0.1-1.7-0.1c-0.6,0-1.2-0.1-1.9-0.2c-0.7-0.1-1.4-0.2-2.1-0.3
	s-1.4-0.1-2.1-0.1c-0.2,0-0.5,0-0.7,0c-0.2,0-0.5,0-0.7,0c-0.3-0.1-0.6-0.2-0.9-0.3c-0.3-0.2-0.7-0.2-1-0.1
	c-0.4-0.4-0.9-0.8-1.5-1.2c-0.5-0.3-1-0.7-1.3-1.2c-0.2-1.8-0.2-3.7,0-5.5c0.2-1.9,0.3-3.9,0.3-5.8c0-0.8,0-1.6,0.1-2.3
	c0.1-0.7,0.2-1.4,0.3-2.1c0.1-0.3,0.1-0.7,0.2-1c0.1-0.3,0.2-0.7,0.3-1c0.1-0.3,0.1-0.6,0.1-0.8s0.2-0.4,0.5-0.5
	c0.1-0.4,0.3-0.7,0.6-1c0.3-0.3,0.5-0.7,0.7-1.1c0.3-0.8,0.5-1.7,0.5-2.6c0-0.8,0.1-1.7,0.1-2.7v-4c0-0.5,0-0.9,0-1.4
	c0-0.5,0-1,0-1.5c0.2-0.8,0.2-1.5-0.1-2.3c-0.3-0.5-0.5-1.1-0.6-1.7c-0.1-0.3-0.1-0.6-0.1-0.9c0-0.3-0.1-0.6-0.2-0.8
	c-0.1-0.6-0.2-1.2-0.3-1.8c-0.1-0.7,0-1.4,0.1-2.1c0.2-1.7,0.3-3.3,0.4-5s0.1-3.2,0.3-4.8c0-0.2,0-0.5-0.1-0.7
	c-0.1-0.2-0.1-0.5,0-0.7c0.1-0.8,0.1-1.6,0.2-2.7s0.1-1.9,0.1-2.8c0-1.2,0.1-2.4,0.2-3.6c0.1-1.1,0.6-2.1,1.4-2.8
	c0.7-0.1,1.4-0.1,2.1-0.3c0.6-0.1,1.3-0.3,2-0.4c0.3,0.2,0.6,0.4,0.9,0.4c0.3,0.1,0.7,0.2,1,0.3c0.4,0.3,0.9,0.7,1.2,1.1
	c0.4,0.4,1,0.6,1.6,0.4c0.2,0,0.4-0.1,0.5-0.3c0.1-0.2,0.3-0.4,0.6-0.5c0.4-0.3,0.8-0.5,1.3-0.5c0.5,0,1.1,0,1.8,0
	c0.2,0,0.3,0,0.5-0.1l0.6-0.2c0.9-0.1,1.8-0.1,2.8,0c1,0.1,1.9,0.2,2.8,0.3c0.3,0.1,0.6,0.1,0.9,0c0.2-0.1,0.5-0.1,0.8,0
	c0.2,0,0.4,0.1,0.6,0.1c0.2,0.1,0.4,0.1,0.6,0.1c0.6,0.1,1.2,0.2,1.8,0c0.7-0.1,1.4-0.1,2.1,0.1c0.4,0.1,0.8,0.1,1.1,0.1
	c0.4,0,0.8,0.1,1.1,0.2c0.6,0.3,1.1,0.6,1.5,1.1c0.5,0.5,0.8,1.2,0.9,1.9c0.4,0.7,0.6,1.4,0.5,2.2c-0.1,0.9-0.2,1.7-0.3,2.6
	c-0.1,0.6-0.2,1.2-0.2,1.9c0,0.6,0,1.3-0.1,2c-0.1,1.5-0.2,3-0.3,4.5c-0.1,1.5-0.3,3-0.5,4.5c-0.2,1.1-0.4,2.1-0.6,3.1
	c-0.2,1-0.2,2-0.1,3c0.4-0.1,0.7-0.3,1-0.6c0.2-0.3,0.5-0.5,0.8-0.6c0.8-0.7,1.5-1.4,2.3-2.1c0.8-0.7,1.6-1.4,2.5-2
	c0.3,0.1,0.6,0.2,0.9,0.2c0.3,0,0.6,0,1-0.1c0.6-0.1,1.2-0.3,1.7-0.6c0.5-0.5,0.7-1.1,0.8-1.8c0.4-0.7,1-1.4,1.7-1.9
	c0.7-0.5,1.4-1.1,1.9-1.8c1.5-1,2.9-2.1,4.5-3.3l2.1-2.1c0.7-0.6,1.4-1.2,2.2-1.7c0.6-0.5,1.2-1,1.8-1.5c0.6-0.5,1.2-1,1.8-1.5
	c0.2-0.2,0.4-0.4,0.6-0.6c0.2-0.2,0.3-0.4,0.5-0.6c0.1-0.1,0.3-0.2,0.5-0.2c0.2,0,0.3-0.1,0.5-0.2c0.2-0.1,0.4-0.3,0.5-0.5
	c0.1-0.2,0.3-0.4,0.4-0.5c0.3-0.1,0.7-0.3,1-0.5c0.1-0.1,0.1-0.2,0.2-0.2c0.4-0.1,0.8-0.2,1.1-0.2c0.4,0,0.8,0,1.1,0
	c0.6,0.1,1.2,0.1,1.9,0.1c0.6,0,1.2,0.1,1.8,0.1c0.2,0,0.4,0,0.6,0c0.2,0,0.3,0,0.5,0c0.7,0,1.4,0,2.1,0.1c0.8,0.1,1.6,0.1,2.3,0
	h0.9c0.3,0,0.6,0,0.8,0.2c0.3,0.1,0.4,0.3,0.5,0.6c0.1,0.3,0.2,0.5,0.4,0.7c0.6,0.5,1.5,0.6,2.2,0.4c0.7-0.3,1.5-0.4,2.3-0.3
	c0.4,0.2,0.7,0.6,0.9,1c0.1,0.3,0,0.7-0.2,0.9c-0.3,0.3-0.5,0.6-0.9,0.9l-1,0.8c-0.3,0.3-0.6,0.6-0.8,0.9c-0.2,0.3-0.5,0.5-0.8,0.8
	c-0.9,0.6-1.8,1.3-2.7,2c-0.9,0.7-1.7,1.4-2.5,2.1c-0.3,0.1-0.5,0.3-0.7,0.6c-0.2,0.2-0.4,0.5-0.6,0.7c-0.3,0.2-0.6,0.4-0.8,0.5
	c-0.2,0.2-0.5,0.3-0.7,0.4l-1.6,1.4c-0.5,0.5-1.1,0.9-1.7,1.3c-0.5,0.3-0.9,0.6-1.4,0.9c-0.5,0.3-0.9,0.7-1.2,1.2c-1.4,1-2.8,2-4,3
	s-2.6,2-3.8,3l-1.1-0.2c-0.3-0.1-0.6,0-1,0.1c-0.3,0.3-0.4,0.5-0.3,0.8c0.1,0.3,0.1,0.6,0,0.9c-0.2,0.7-0.7,1.2-1.3,1.5
	c-0.6,0.3-1.1,0.8-1.3,1.5c0.3,0.5,0.7,1,1.1,1.5c0.4,0.5,0.8,1,1.2,1.5c1.1,1.5,2.1,2.9,3.2,4.4c1,1.5,2.1,3,3.3,4.4
	c0.2,0.3,0.4,0.6,0.5,0.8c0.2,0.3,0.4,0.5,0.6,0.7c0,0.6,0.2,1.1,0.6,1.5c0.4,0.4,0.7,0.9,0.8,1.4c0.1,0.3,0,0.7,0,1
	c-0.1,0.4-0.1,0.7,0,1.1l0.6,1c0.2,0.3,0.4,0.7,0.8,0.9l0.7,0.4l0.6,0.4c0.3,0.4,0.7,0.8,1,1.2c0.3,0.4,0.6,0.8,1,1.2
	c0.4,0.5,0.7,0.9,1,1.4l1,1.6c0.1,0.2,0.3,0.5,0.5,0.8c0.2,0.3,0.3,0.7,0.5,1c0.2,0.3,0.5,0.6,0.7,1c0.2,0.4,0.4,0.7,0.7,1
	c0.4,0.4,0.6,0.6,0.6,0.7c0,0.1,0,0.2,0.1,0.3c0.1,0.1,0.3,0.3,0.5,0.4s0.3,0.2,0.5,0.4c0.2,0.4,0.4,0.8,0.7,1.1
	c0.3,0.4,0.5,0.8,0.7,1.2c0.3,0.1,0.6,0.3,0.7,0.6l0.5,0.9c0.4,0.3,0.8,0.8,1.1,1.2c0.1,0.2,0.3,0.5,0.4,0.8
	c0.2,0.2,0.3,0.5,0.5,0.8c0.1,0.2,0.3,0.4,0.5,0.6L298.2,74.7z M225.4,52c0.1-0.4,0.3-0.8,0.4-1.2c0.2-0.4,0.2-0.9,0.1-1.3
	c-0.1-0.6-0.2-1.3-0.5-1.8c-0.2-0.5-0.4-1-0.8-1.4c-0.2,0.9-0.3,1.7-0.4,2.6c-0.1,0.9-0.3,1.8-0.6,2.6c-0.4,0.3-0.8,0.6-1.2,0.8
	c-0.5,0.3-0.9,0.7-1.1,1.3c0,0.2,0,0.4,0,0.6c0,0.2,0,0.5-0.1,0.7c-0.1,0.8-0.2,1.5-0.3,2.3s0.3,1.2,1.2,1.2c0.6-0.4,0.9-1,0.9-1.7
	c0-0.2,0-0.5-0.1-0.7c-0.1-0.2-0.1-0.4-0.1-0.7c0.1-0.7,0.5-1.3,1.1-1.7C224.6,53.2,225.1,52.7,225.4,52z M229.9,11.7
	c0.1-0.2,0.2-0.5,0.2-0.7c0-0.3,0.1-0.6,0.2-0.9c-0.7,0-1.5-0.2-2.1-0.6c-0.6-0.4-1.2-0.5-1.9-0.5c-1.3,0-1.9,0.8-1.9,2.4
	c0,0.4,0,0.8,0,1.1c0,0.3,0,0.6,0.1,0.9c0,0.2,0.1,0.5,0.3,0.6c0.2,0.2,0.3,0.3,0.5,0.3c0.2-0.7,0.6-1.3,1-1.9
	c0.3-0.2,0.6-0.3,1-0.3h1.3C229.1,12.2,229.6,12,229.9,11.7z M228.9,2.5c-0.4-0.2-0.7-0.4-1-0.7c-0.3-0.2-0.6-0.5-0.9-0.9
	c0.3-0.7,0.6-1,0.9-0.8c0.3,0.2,0.7,0.2,1.1,0.1c0.2,0,0.4-0.1,0.6-0.3c0.2-0.1,0.5-0.1,0.7,0c0.6,0.1,1,0.7,0.9,1.3c0,0,0,0,0,0.1
	c0,0.6-0.4,1.2-1,1.4c-0.2-0.2-0.4-0.3-0.6-0.2C229.4,2.7,229.1,2.7,228.9,2.5z M237.5,74.6c0.4,0.1,0.8,0.5,0.9,0.9
	c0.2,0.6,0.2,1.2,0.1,1.8c-0.3,0.3-0.8,0.5-1.2,0.5c-0.5,0-1.1,0-1.6-0.1l-1.7-0.2c-0.5-0.1-1.1-0.1-1.6,0c-0.2-0.2-0.3-0.4-0.4-0.7
	c-0.1-0.3,0-0.6,0.2-0.8c0.3-0.2,0.7-0.2,1-0.2c0.4,0.1,0.8,0.1,1.2,0c0.6-0.2,1.1-0.5,1.5-0.9C236.2,74.5,236.9,74.4,237.5,74.6z
	 M234.8,11.4c0.4-0.1,0.8-0.3,1.1-0.6c0.3-0.3,0.4-0.8,0.2-1.2c-0.5,0-1,0-1.5,0.2c-0.6,0.2-0.9,0.5-0.8,1c0.1,0.2,0.2,0.3,0.4,0.4
	C234.4,11.3,234.6,11.4,234.8,11.4z M244.9,67.8c0.1-0.2,0.2-0.4,0.1-0.6c0-0.2-0.1-0.4-0.1-0.6c0-0.6-0.1-1.2-0.2-1.8
	c-0.1-0.5-0.5-0.9-1-1c-0.2-0.1-0.4,0-0.5,0.2c-0.2,0.2-0.3,0.4-0.4,0.6l-0.4,0.8l-0.3,0.6c-0.2,0.4-0.5,0.8-0.9,1.1
	c-0.3,0.3-0.5,0.7-0.5,1.2c0.2,0.6,0.7,1,1.2,1.3c0.5,0.4,1.2,0.5,1.8,0.4c0.3-0.2,0.5-0.5,0.6-0.9
	C244.6,68.6,244.8,68.2,244.9,67.8z M260.5,51.2c0.1,0.2,0.1,0.5,0,0.7c-0.1,0.3,0,0.6,0.1,0.8c0.1,0.5,0.4,1,0.8,1.3
	c0.4,0.3,0.5,0.9,0.3,1.3c-0.2,0.1-0.6,0.1-0.8-0.1c-0.2-0.2-0.4-0.5-0.6-0.7c-0.2-0.3-0.4-0.6-0.5-0.9c-0.1-0.3-0.3-0.5-0.6-0.7
	c0-0.3-0.2-0.6-0.3-0.8c-0.2-0.2-0.2-0.5-0.2-0.8c-0.5-0.1-0.9-0.3-1.2-0.6c-0.3-0.3-0.7-0.6-1-0.8c-0.6,0.1-1.3,0.3-1.9,0.6
	c-0.6,0.3-1.2,0.5-1.9,0.6c-0.2-0.2-0.2-0.5-0.1-0.7c0.1-0.3,0.3-0.5,0.5-0.6c0.3-0.2,0.6-0.4,0.9-0.5l0.9-0.4
	c0.2-0.1,0.4-0.3,0.5-0.4l0.4-0.4c0.3-0.2,0.6-0.3,0.9-0.4c0.2-0.1,0.4-0.2,0.6-0.4c0.8,0.2,1.4,0.7,1.8,1.4c0.4,0.4,0.7,0.9,1,1.3
	C260.1,50.4,260.3,50.8,260.5,51.2z M264.6,42c0.2-0.4,0.2-0.8,0-1.1c-0.2-0.4-0.5-0.7-0.8-1c-0.3-0.3-0.6-0.6-1-0.9
	c-0.3-0.2-0.6-0.5-0.8-0.7c-0.2-0.1-0.3-0.3-0.5-0.4c-0.1-0.1-0.2-0.3-0.4-0.3c-0.7-0.3-1.4-0.3-2.1,0c-0.7,0.2-1.2,0.6-1.4,1.3
	c0.5-0.1,1.1-0.1,1.6,0c0.4,0.1,0.9,0.3,1.2,0.6c0.1,0.1,0.3,0.2,0.4,0.3c0.2,0.1,0.3,0.2,0.4,0.3c0.4,0.4,0.7,0.9,1,1.4
	c0.2,0.5,0.7,0.9,1.2,1c0.2,0.1,0.4,0,0.6-0.1C264.3,42.3,264.5,42.2,264.6,42z M273.5,9.8c-0.2-0.6-0.2-0.9-0.1-1
	c0.2-0.1,0.3-0.2,0.5-0.3c0.5-0.8,1.2-1.5,2-2c0.8-0.5,1.5-1.1,2.3-1.6c0.4-0.7,0.9-1.3,1.5-1.8c0.8-0.1,1.6-0.1,2.4,0
	c0.5,0.1,1.1,0.2,1.8,0.2c0.5,0.1,1,0,1.5,0c0.5-0.1,0.9-0.1,1.4,0c0.8,0.1,1.6,0.1,2.3,0c0.5-0.1,1-0.1,1.5,0
	c0.5,0,0.9,0.1,1.3,0.3c0.6,0.2,0.8,0.5,0.6,0.9c-0.2,0.3-0.6,0.4-0.9,0.5C291,5,290.5,5,290,5c-0.7-0.2-1.5-0.3-2.2-0.2
	c-0.5,0.1-1,0.2-1.5,0.2h-3.1c-0.4,0-0.8-0.1-1.2-0.2c-0.3-0.1-0.7-0.1-1,0c-0.2,0.1-0.4,0.2-0.6,0.4c-0.1,0.2-0.2,0.3-0.4,0.4
	c-0.6,0.2-1.2,0.6-1.7,1c-0.5,0.4-1,0.8-1.5,1.2c-0.5,0.4-1,0.8-1.5,1.2C274.8,9.4,274.2,9.7,273.5,9.8L273.5,9.8z M285.4,79.3h1
	c0.3,0,0.5,0.2,0.4,0.5c0,0.1-0.1,0.3-0.4,0.4c-0.2,0.1-0.4,0.3-0.6,0.4c-0.3,0.2-0.6,0.3-1,0.4h-1.1c-0.3,0-0.5,0-0.8,0.1
	c-0.2,0.1-0.4,0.1-0.6,0.1c-1,0.1-2-0.1-3-0.5l-2.5-1.1c-0.2-0.3-0.4-0.7-0.6-1c-0.2-0.4-0.5-0.7-0.8-1c-0.1-0.1-0.3-0.2-0.4-0.3
	c-0.2-0.1-0.3-0.2-0.4-0.3c-0.2-0.4-0.3-0.9-0.4-1.3c-0.1-0.5,0-0.9,0.2-1.3c0.5,0.1,1,0.4,1.4,0.8c0.3,0.4,0.6,0.8,0.9,1.2
	c0.3,0.2,0.6,0.5,0.9,0.8c0.3,0.3,0.6,0.5,0.8,0.8c0.2,0.2,0.5,0.4,0.9,0.7c0.3,0.3,0.7,0.4,1.1,0.5c0.5,0.1,1.1,0.2,1.6,0.2h1.9
	C284.4,79.3,284.9,79.3,285.4,79.3L285.4,79.3z M276.4,64.9c0.3,0.4,0.7,0.7,1.2,0.8c0.5,0.1,0.9-0.1,1-0.7
	c-0.2-0.9-0.4-1.7-0.8-2.5c-0.3-0.6-0.7-1.1-1.1-1.5c-0.4-0.5-1.1-0.7-1.7-0.5c-0.3,0.6-0.2,1.3,0.1,1.8c0.3,0.5,0.6,1,1,1.5
	c0.1,0.2,0.1,0.3,0.1,0.5C276.4,64.6,276.4,64.8,276.4,64.9L276.4,64.9z M284,72.7c-0.1-0.6-0.4-1.1-0.7-1.7c-0.3-0.5-0.6-0.9-1-1.3
	c-0.4-0.3-0.9-0.4-1.4-0.4c-0.5,0.1-0.7,0.4-0.5,1.1c0.4,0.5,0.8,1,1.3,1.5C282.4,72.5,283.3,72.8,284,72.7L284,72.7z M285,14.7
	c-0.3,0.3-0.4,0.7-0.4,1c0,0.4,0.1,0.7,0.4,0.8c0.3,0.2,0.7,0.3,1,0.2c0.3-0.1,0.6-0.2,0.9-0.4c0.9-0.1,1.6-0.7,2-1.4
	c-0.1-0.4,0.1-0.9,0.5-1.1c0.4-0.2,0.7-0.4,1.1-0.5c0.2,0.1,0.6,0.1,0.8-0.1l0.7-0.7c0.3-0.5,0.6-1,0.8-1.3c0.2-0.3,0-0.8-0.5-1.1
	c-0.1,0.1-0.3,0.1-0.6,0c-0.2-0.1-0.5-0.1-0.7-0.1c-0.5,0-1,0.3-1.2,0.8c-0.2,0.5-0.6,0.9-0.9,1.2c-0.4,0.3-0.8,0.6-1.2,1l-1.1,0.9
	c-0.2,0.2-0.5,0.3-0.8,0.4C285.4,14.4,285.2,14.5,285,14.7L285,14.7z M289.9,79.9c0.4-0.1,0.9-0.1,1.3,0.1c0.3,0.1,0.6,0.5,0.6,0.8
	c0,0.4-0.2,0.8-0.5,1c-0.3,0.2-0.6,0.3-1,0.3c-0.3-0.3-0.6-0.6-1-0.9c-0.2-0.1-0.2-0.3-0.1-0.7L289.9,79.9z M295.9,5.6
	c-0.3-0.1-0.6-0.1-0.8-0.3c-0.3-0.1-0.5-0.2-0.8-0.2c-0.2-0.3-0.2-0.7,0-1c0.5-0.3,1.1-0.4,1.7-0.3c0.8,0.1,1.2,0.5,1.2,1
	c0,0.3-0.2,0.5-0.4,0.6C296.6,5.6,296.3,5.6,295.9,5.6L295.9,5.6z"/>
<path id="u" class="st0" d="M307.4,31.6c0.1-0.1,0.2-0.2,0.4-0.3c0.2-0.1,0.4-0.2,0.7-0.1c0.4,0.6,0.7,1.2,0.9,1.9
	c0.2,0.7,0.2,1.5,0.1,2.2c-0.2,0.2-0.4,0.5-0.5,0.9c-0.1,0.4-0.3,0.7-0.4,1.1c-0.1,0.3-0.3,0.6-0.6,0.8c-0.2,0.2-0.6,0.2-1-0.1
	c0.2-1,0.2-2,0.1-3c-0.1-0.9,0-1.8,0.4-2.6V31.6z M308.9,14.2c-0.6,0.1-1.2-0.1-1.6-0.6c-0.1-0.7-0.2-1.5-0.1-2.2
	c0.1-0.8,0.1-1.6,0.3-2.3c0.1-0.7,0.1-1.4,0.1-2c0-0.7,0.1-1.3,0.2-2c0.1-0.3,0.1-0.7,0.2-1.2c0-0.4,0.2-0.7,0.4-1
	c0.3-0.5,0.8-0.8,1.3-0.9c0.6-0.1,1.1-0.3,1.4-0.8c0.5,0.1,1,0,1.5-0.1c0.2-0.1,0.5-0.2,0.8-0.2c-0.1-0.6,0.1-0.8,0.6-0.6
	c0.5,0.2,1,0.4,1.5,0.4c0.4,0,0.8-0.1,1.2-0.1c0.4-0.1,0.8,0,1.1,0.2c0.2,0.2,0.4,0.5,0.5,0.8c0.1,0.3,0.2,0.6,0.1,1
	c-0.6,0.6-1.1,0.9-1.3,0.8c-0.2-0.1-0.4-0.3-0.6-0.5c-0.2-0.2-0.4-0.4-0.6-0.6c-0.2-0.2-0.5-0.3-0.8-0.4c-0.3,0.2-0.4,0.5-0.6,0.9
	c-0.1,0.3-0.4,0.6-0.7,0.8c-0.7-0.1-1.5,0-2.2,0.3c-0.7,0.3-1.4,0.6-2.1,0.7c-0.3,0.4-0.5,0.8-0.6,1.3c-0.1,0.5-0.1,0.9-0.1,1.4
	c-0.1,0.4,0,0.8,0.1,1.2c0.1,0.3,0.2,0.7,0.2,1c0,0.3,0,0.6-0.1,0.9c-0.1,0.3-0.1,0.6-0.1,0.9c-0.1,0.6-0.1,1.1,0,1.7
	C309.1,13.2,309,13.7,308.9,14.2L308.9,14.2z M328.6,77.5c0.4,0.2,0.9,0.3,1.4,0.2c0.5-0.1,1,0,1.5,0.1c0.5,0.5,0.6,1.3,0.1,1.8
	c0,0-0.1,0.1-0.1,0.1c-0.6,0.6-1.5,0.6-2.1,0.1l-0.4-0.4c-0.1-0.1-0.3-0.2-0.4-0.4c-0.7-0.4-1.4-0.6-2.1-0.6c-0.8-0.1-1.6,0-2.3,0.2
	c-0.3-0.2-0.6-0.3-1-0.2c-0.4,0.1-0.8,0.1-1.1,0c-0.6-0.1-1.1-0.3-1.6-0.5c-0.5-0.3-1.1-0.4-1.7-0.3c-0.3-0.2-0.5-0.3-0.9-0.4
	c-0.3-0.1-0.6-0.3-0.8-0.6c-1-0.4-2-1-2.9-1.7c-0.8-0.6-1.5-1.3-2.2-2c-0.6-0.6-1.2-1.3-1.7-2c-0.6-0.7-1-1.5-1.1-2.4
	c-0.1-0.2-0.1-0.5,0-0.7c0.1-0.2,0.1-0.4,0-0.6c-0.1-0.4-0.2-0.7-0.1-1.1c0-0.3,0.3-0.5,0.9-0.4c0.2,0.1,0.3,0.3,0.3,0.5
	c0,0.2,0.1,0.4,0.2,0.6c0.1,0.1,0.2,0.3,0.3,0.4c0.1,0.1,0.3,0.3,0.4,0.5c0.2,0.7,0.5,1.3,1,1.8c0.4,0.4,0.8,0.7,1.1,1.1
	c0.2,0.2,0.4,0.5,0.5,0.8c0.1,0.2,0.3,0.5,0.5,0.7c0.3,0.2,0.7,0.5,1,0.7c0.3,0.2,0.6,0.3,0.8,0.5c0.1,0.2,0.2,0.4,0.4,0.6
	c0.2,0.1,0.3,0.3,0.4,0.5c0.3,0.2,0.7,0.4,1,0.6c0.3,0.3,0.6,0.5,1,0.6c0.3,0.2,0.6,0.3,1,0.4c0.4,0.1,0.7,0.3,0.9,0.6
	c1.2,0.2,2.5,0.5,3.8,0.8C325.9,77.6,327.3,77.7,328.6,77.5z M385.1,7.2c0.6,0.1,1.2,0.1,1.8,0c0.5-0.1,0.8,0,0.9,0.3
	c-0.4,1.9-0.7,3.9-0.9,5.9c-0.1,1.6-0.1,3.3,0,5c0.1,0.5,0.1,1,0,1.6c-0.1,0.5-0.1,1.1-0.2,1.6c-0.1,0.7-0.1,1.3,0,2
	c0.1,0.6,0.1,1.3,0,1.9c-0.2,0.1-0.5,0.3-0.6,0.5c-0.1,0.2-0.3,0.5-0.5,0.8c-0.3,0.4-0.5,0.9-0.6,1.3c-0.1,0.6-0.1,1.1,0,1.7
	c0,0.4,0.1,0.8,0.2,1.2c0.2,0.4,0.3,0.8,0.4,1.3c0.1,0.3,0.2,0.5,0.3,0.7c0.1,0.2,0.2,0.5,0.2,0.8c0.1,1.3,0,2.6-0.2,3.9
	c0,0.3,0,0.7,0,1c0,0.4,0.1,0.8,0,1.1c-0.1,0.5-0.1,1-0.2,1.6c-0.1,0.5-0.1,1,0,1.6c0.1,0.8,0.2,1.6,0.1,2.4c0,0.7,0,1.3,0,2
	c0.1,1,0,2.1-0.1,3.1c-0.1,1-0.2,1.9-0.3,2.8c0,0.7,0.1,1.5,0.1,2.2c0.1,0.7,0.1,1.5,0,2.2c-0.3,0.6-0.4,1.2-0.5,1.8v1.4
	c0,0.4,0,0.9,0.1,1.3c0.1,0.4,0.1,0.8,0,1.2c-0.2,0.3-0.3,0.6-0.4,1c0,0.2,0,0.3-0.1,0.5c-0.2,0.7-0.5,1.3-1,1.9
	c-0.5,0.6-0.8,1.3-1,2.1l-1.8,1.8c-0.6,0.6-1.2,1.2-1.8,1.8c-0.7,0.3-1.4,0.7-2.1,1.1c-0.7,0.5-1.4,0.9-2.2,1.2
	c-0.7,0.3-1.5,0.3-2.2,0.1c-0.8-0.1-1.7-0.1-2.5,0c-0.3,0.1-0.5,0.1-0.8,0.1c-0.3,0-0.5,0.1-0.7,0.2c-0.2,0.1-0.5,0.2-0.7,0.4
	c-0.1,0.1-0.3,0.3-0.5,0.4c-0.3,0.2-0.6,0.3-1,0.4l-1.1,0.2c-0.8,0.2-1.6,0.3-2.2,0.4c-0.7,0.1-1.5,0.1-2.2,0.1c-0.3,0-0.7,0-1,0.1
	c-0.3,0.1-0.7,0-1,0c-1.5-0.1-2.9-0.1-4.4,0c-1.4,0-2.9,0-4.3-0.1c-0.6,0-1.3,0-1.9,0.1c-0.6,0.1-1.3,0.1-1.9,0
	c-0.4,0-0.7,0-1.1-0.1c-0.3-0.1-0.7-0.1-1-0.1c-0.3-0.1-0.7-0.1-1,0c-0.3,0.1-0.6,0.1-0.9,0.1c-0.6,0.1-1.1,0-1.7-0.2
	c-0.6-0.2-1.3-0.3-2-0.3c-0.3,0-0.5,0-0.8,0.1c-0.3,0.1-0.5,0-0.8-0.1l-1.7-0.4l-1.7-0.4c-0.3,0-0.7,0-1,0c-0.4,0-0.7,0-1.1,0
	c-0.5-0.2-1.1-0.3-1.7-0.3c-0.3,0-0.6,0-0.9-0.1c-0.2,0-0.4-0.1-0.5-0.2c-0.2-0.1-0.3-0.2-0.5-0.2c-0.2-0.1-0.5-0.1-0.8,0
	c-0.2,0.1-0.4,0.1-0.7,0.1c-0.5,0-1-0.1-1.4-0.1c-0.5-0.1-1-0.2-1.6-0.2c-0.2-0.1-0.5-0.1-0.7,0c-0.2,0.1-0.4,0.1-0.6,0
	c-0.6-0.1-1.1-0.4-1.6-0.7c-0.5-0.3-1.1-0.5-1.7-0.6c-0.3-0.6-0.6-1.3-1-1.9c-0.4-0.7-1.2-1-2-0.8c-1-1-1.9-2.1-2.9-3.3
	c-1-1.2-1.8-2.6-2.4-4c-0.1-0.2-0.2-0.5-0.3-0.8c-0.1-0.3-0.2-0.6-0.3-0.8c-0.4-1-0.6-2.1-0.8-3.1c-0.1-0.3-0.1-0.5-0.1-0.8
	c0-0.3-0.1-0.5-0.2-0.8c0-0.3,0-0.5,0.1-0.8c0.1-0.2,0.1-0.5,0.1-0.8c-0.2-0.5-0.2-1-0.2-1.5c0.1-0.1,0.1-0.3,0.1-0.5
	c-0.1-0.5-0.2-1-0.1-1.5c0-0.3,0-0.5,0-0.8c-0.1-0.7-0.2-1.5-0.1-2.2c0-0.5,0-1.1,0-1.6v-1.4c0-0.4,0-0.8,0.2-1.1
	c0.1-0.2,0.2-0.3,0.4-0.4c0.2-0.1,0.3-0.3,0.4-0.5c0-0.4-0.2-0.7-0.4-1c-0.2-0.3-0.4-0.6-0.5-0.9c0.1-0.6,0.1-1.1,0-1.7
	c0-0.3,0-0.6,0-0.9c0.1-0.2,0.2-0.5,0.3-0.7l0.4-0.7l0.3-1c0.1-0.3,0.3-0.6,0.6-0.7c0-0.4,0.2-0.7,0.5-1c0.3-0.3,0.5-0.6,0.6-1
	c0.1-0.5,0-1.1-0.2-1.6l-0.6-1.5c-0.4-0.3-0.7-0.6-1-1c-0.1-0.5-0.1-1.1-0.2-1.7c0-0.7,0-1.3,0-2c0.1-0.4,0.1-0.9,0.1-1.3
	c0-0.1,0-0.3,0-0.4c0.1-0.9,0.1-1.7,0.2-2.5c0.1-0.8,0.1-1.7,0-2.5c0-1,0-2.1,0.1-3.2c0.1-1.1,0.1-2.2,0.2-3.2v-3.7
	c0-1.2,0.1-2.4,0.4-3.6c0.2-0.3,0.5-0.5,0.9-0.6c0.4-0.1,0.7-0.3,1.1-0.4c0.3-0.3,0.6-0.5,1-0.7c0.4-0.1,0.8-0.2,1.2-0.1
	c0.4,0,0.8-0.1,1.2-0.2c0.6,0.1,1.2,0.2,1.9,0.1l2-0.2c0.4,0,0.9,0,1.3,0.1c0.4,0.1,0.7,0.1,1.1,0c0.4,0.3,0.9,0.6,1.4,0.8
	c0.2,0,0.4,0.1,0.6,0.1c0.3,0.2,0.7,0.4,1,0.5c0.3,0.1,0.6,0.2,1,0.1c0.3,0,0.6-0.1,1-0.1c0.8,0,1.7-0.2,2.5-0.5
	c0.5-0.2,1-0.2,1.5-0.2l0.8,0.1c0.3,0,0.5,0,0.8,0c0.3,0,0.6,0.1,0.9,0c0.2,0,0.4,0,0.5-0.1c0.2-0.1,0.4-0.1,0.6-0.1
	c0.9,0,1.8,0,2.7,0s1.9,0,2.8,0c0.4,0,0.8,0,1.3,0c0.4,0,0.8,0,1.2,0.1c0.3,0.2,0.6,0.5,0.8,0.8c0.3,0.3,0.5,0.7,0.6,1
	c0.1,0.3,0.1,0.6,0,1c-0.1,0.3-0.1,0.7,0,1c0,0.3,0,0.6,0.1,0.9c0.1,0.3,0.1,0.5,0.2,0.9c0.1,1.4,0.1,2.8,0,4.2
	c-0.1,1.6-0.2,2.8-0.2,3.8c-0.5,0.9-0.9,1.6-1.1,2.1c-0.1,0.1-0.2,0.2-0.3,0.4c-0.1,0.2-0.2,0.4-0.1,0.7c0,0.8,0.2,1.6,0.6,2.3
	c0.4,0.7,0.5,1.6,0.5,2.4c-0.2,0.9-0.3,1.9-0.3,2.9c0,0.6,0,1.2,0,1.8c-0.1,0.9-0.1,1.7,0,2.6c0.1,0.9,0.1,1.8,0,2.7
	c-0.1,0.7-0.2,1.4-0.3,2.1c-0.1,0.7-0.1,1.5,0,2.2c-0.2,0.5-0.3,1.1-0.2,1.6c0,0.6,0,1.3,0,1.9c-0.1,0.6-0.1,1.2-0.1,1.8v1.7
	c0,0.2,0,0.4,0.1,0.6c0.1,0.2,0.1,0.3,0.1,0.5c-0.2,0.9-0.3,1.8-0.1,2.8c0.2,0.7,0.1,1.4,0,2c-0.1,0.2-0.2,0.4-0.4,0.7
	c-0.1,0.2-0.3,0.4-0.4,0.7c-0.1,0.2-0.2,0.4-0.3,0.7c-0.1,0.3,0,0.6,0.1,0.9c0.2,0.2,0.4,0.3,0.7,0.4c0.2,0,0.5,0.2,0.6,0.4
	c0.1,0.9,0.4,1.7,0.8,2.5c0.4,0.7,0.8,1.3,1.4,1.8c0.8-0.1,1.5,0.2,2,0.8c1-0.2,2-0.2,3-0.1c0.3,0,0.5,0,0.8,0c0.2,0,0.5,0,0.7,0
	c0.3,0,0.6,0,0.9,0c0.3,0,0.6,0,0.9,0h5.1c0.7,0.1,1.3,0.4,1.8,0.9c0.3,0.4,0.6,0.6,1,0.8c0.6,0.1,1.2,0,1.8-0.4
	c0.4-0.3,0.9-0.6,1.5-0.7c0.7-0.3,1.4-0.4,2.1-0.3c0.8,0.1,1.5-0.1,2.2-0.4c0.5-0.2,0.9-0.6,1.3-1c0.4-0.5,0.7-1,0.9-1.6
	c0.1-0.3,0.1-0.5,0.1-0.8s0.1-0.5,0.1-0.8c0.1-0.9,0.2-1.7,0.2-2.6c0-0.9,0-1.8-0.1-2.7c-0.1-0.5-0.1-1,0-1.5c0.1-0.5,0.1-0.9,0-1.4
	c0-0.3-0.1-0.7-0.2-1c-0.1-0.4-0.1-0.9,0-1.3c0.3-0.4,0.6-0.9,0.8-1.4c0.1-0.3,0.2-0.5,0.4-0.8c0.1-0.3,0.2-0.5,0.4-0.8
	c0.2-0.2,0.2-0.5,0.2-0.8c0.1-0.7,0-1.4-0.4-2c-0.3-0.6-0.4-1.3-0.4-2c-0.1-0.5-0.3-0.9-0.6-1.2c-0.3-0.4-0.5-0.8-0.6-1.3
	c-0.1-0.5-0.1-1,0-1.4c0.1-0.6,0.1-1.1,0.2-1.7c0.1-1,0.1-2.1,0.1-3.3c-0.1-1,0.3-1.9,1.1-2.6c-0.1-0.2-0.1-0.5,0.1-0.7
	c0.2-0.2,0.3-0.4,0.4-0.6c0.1-0.3,0.2-0.6,0.1-0.8c-0.1-0.3,0.1-0.5,0.3-0.7c0-0.8-0.1-1.5-0.3-2.3c-0.1-0.7-0.2-1.3-0.3-2
	c-0.1-0.3-0.3-0.7-0.5-1.1c-0.2-0.4-0.4-0.8-0.7-1.2c-0.2-0.6-0.3-1-0.3-1.2c0.1-0.2,0.1-0.3,0.1-0.5c0-0.3,0-0.5-0.1-0.8
	c-0.1-0.3-0.1-0.6-0.1-0.8c0-0.7,0-1.4,0.1-2.1c0.1-0.7,0.1-1.3,0.1-1.9c0-0.3,0-0.6-0.1-0.9c-0.1-0.3,0-0.6,0.1-0.9
	c0.2-0.6,0.5-1.1,1-1.5c0.4-0.4,0.8-0.7,1.3-0.8c0.4,0.1,0.9,0.1,1.3,0c0.2-0.1,0.3-0.1,0.5-0.1c0.4,0.1,0.7,0.3,0.9,0.7
	c0.2,0.3,0.4,0.5,0.8,0.7c0.3-0.1,0.7-0.2,1-0.3c0.4-0.1,0.8-0.1,1.2,0c0.6-0.2,1.1-0.5,1.6-0.8c0.5-0.3,1-0.5,1.5-0.8
	c0.3-0.1,0.5-0.1,0.8,0L385.1,7.2z M315.5,29.7c0.6,0.1,1.2-0.2,1.4-0.8c0.3-0.6,0.4-1.3,0.3-2c0-0.2,0-0.4-0.1-0.6
	c-0.1-0.2-0.2-0.5-0.3-0.7c-0.1-0.2-0.2-0.5-0.1-0.8c0.1-0.3,0.1-0.7,0.1-1c0-0.5-0.1-1-0.2-1.5c-0.1-0.4-0.3-0.7-0.6-1
	c-0.5,0.4-0.9,1-1.2,1.6c-0.3,0.6-0.5,1.2-0.7,1.9c0.1,0.6,0,1.2-0.1,1.8c-0.1,0.5-0.2,1.1-0.3,1.6c0.3,0.3,0.5,0.7,0.8,1
	C314.7,29.5,315.1,29.7,315.5,29.7z M314.7,16.7c-0.2,0.3-0.2,0.7-0.2,1.1c0.1,0.3,0.2,0.7,0.3,1c0.4,0.1,0.9-0.1,1.2-0.4
	c0.3-0.3,0.5-0.8,0.5-1.2c0-0.4-0.3-0.8-0.6-1c-0.4-0.3-0.7-0.2-0.8,0.3L314.7,16.7z M335.9,9.6c-0.3,0.4-0.3,1-0.1,1.4
	c0.2,0.4,0.5,0.8,0.8,1.1l1.2,1c0.4,0.2,0.6,0.6,0.8,1c0,0.4-0.1,0.7-0.2,1.1c-0.1,0.4-0.1,0.9,0,1.3c0,0.3,0.1,0.6,0.3,0.9
	c0.1,0.3,0.4,0.4,0.7,0.4c0.3,0,0.5-0.1,0.7-0.4c0.2-0.3,0.5-0.4,0.8-0.4c0.2-0.4,0.3-0.8,0.2-1.2c-0.1-0.4-0.1-0.9,0-1.3
	c0.2-0.6,0.2-1.3,0.3-1.9c0.1-0.6,0-1.3-0.2-1.9c-0.2-0.3-0.4-0.6-0.6-0.8c-0.2-0.3-0.5-0.4-0.8-0.2c-0.6,0.1-1.2,0.1-1.8,0
	C337.2,9.5,336.6,9.5,335.9,9.6L335.9,9.6z M342.8,65.3c0.3-0.5,0.4-1.1,0.1-1.6l-0.7-1.4c-0.1-0.2-0.1-0.4-0.2-0.7
	c0-0.2-0.1-0.4-0.3-0.6c-0.3-0.3-0.6-0.6-1-0.7c-0.4-0.1-0.8-0.4-1.1-0.6c-0.7-0.6-1-1.5-1-2.4c0-1.1,0-2.1-0.1-3
	c-0.3,0-0.7,0-1,0.2c-0.1,0.1-0.2,0.2-0.3,0.3c-0.6,0.9-0.7,2-0.3,3c0.4,1.1,0.7,2.1,0.9,3c0.1,0.4,0.4,0.8,0.6,1.2
	c0.3,0.4,0.5,0.8,0.7,1.1c0.4,0.7,0.9,1.3,1.4,1.8C341.3,65.4,342.1,65.6,342.8,65.3L342.8,65.3z M344.1,3.6
	c-0.3-0.1-0.5-0.2-0.8-0.3c-0.3-0.1-0.4-0.2-0.4-0.4c0-0.5,0.3-0.6,1-0.4c0.5,0.1,1.1,0.3,1.6,0.3c0.7,0.1,1.3,0.1,2,0
	c0.6,0,1.3,0.2,1.7,0.7c0.1,0.7,0.1,1.5,0,2.2c-0.1,0.7-0.3,1.3-0.6,1.9c0.2,0.2,0.2,0.5,0.1,0.7c-0.1,0.2-0.1,0.5-0.1,0.7
	c-0.2,1.1-0.5,1.6-1,1.6c-0.4-0.8-0.5-1.2-0.5-1.4c-0.3-0.8-0.5-1.7-0.4-2.6c0.1-0.8,0-1.7-0.1-2.5c-0.4-0.1-0.7-0.1-1.1-0.2
	C345.1,3.8,344.6,3.7,344.1,3.6L344.1,3.6z M347.6,11.4c0.2-0.1,0.6-0.1,0.8,0.1c0.2,0.2,0.3,0.4,0.5,0.6c0.1,0.8-0.1,1.3-0.6,1.5
	c-0.4,0-0.7-0.2-0.8-0.8C347.4,12.3,347.4,11.8,347.6,11.4L347.6,11.4z M363.2,62.5c-0.4-0.1-0.7-0.4-0.8-1.1
	c-0.1-0.5,0-1.1,0.3-1.6c0.9-0.2,1.9-0.3,2.8-0.3c0.7,0,1.3-0.2,1.9-0.5c0.1-0.4,0.2-0.8,0.4-1.2l0.6-1.3c0.1-0.9,0.4-1.7,0.8-2.5
	c0.6,0.5,1,1.2,1,2c-0.1,0.6-0.2,1.3-0.3,2c-0.1,0.7-0.3,1.3-0.6,1.9c-0.3,0.6-1,1-1.6,1.1c-0.2,0-0.4,0-0.6,0c-0.2,0-0.4,0-0.6,0
	c-0.2,0.1-0.5,0.1-0.7,0.2c-0.3,0.1-0.5,0.1-0.8,0c-0.2,0-0.4,0.1-0.5,0.3c-0.1,0.1-0.2,0.3-0.3,0.4
	C363.9,62.2,363.6,62.4,363.2,62.5L363.2,62.5z M369.9,52.7c-0.4,0-0.7-0.2-0.9-0.5c-0.2-0.3-0.3-0.6-0.3-1c0.1-0.2,0.2-0.5,0.4-0.9
	s0.3-0.7,0.5-0.7c0.3-0.1,0.6,0,0.8,0.5c0.2,0.4,0.3,0.8,0.3,1.2c0,0.3-0.1,0.5-0.3,0.7C370.1,52.2,370,52.4,369.9,52.7L369.9,52.7z
	 M382.9,63.2c0.1-0.5,0-0.9-0.3-1.3c-0.3-0.4-0.7-0.6-1.2-0.4c-0.2,0-0.4,0-0.6,0.1c-0.1,0.1-0.3,0.2-0.4,0.3
	c-0.1,0.2-0.2,0.5-0.3,0.8c-0.1,0.3-0.2,0.5-0.3,0.8c-0.1,0.6-0.4,1.2-0.9,1.7c-0.4,0.4-0.7,0.9-1,1.4c-0.6,0.2-1.1,0.5-1.6,0.8
	c-0.6,0.3-0.9,0.9-1,1.6c0,0.4,0.1,0.7,0.3,1c0.1,0.3,0.4,0.4,0.6,0.6c0.5,0,0.9-0.1,1.3-0.4c0.5-0.3,0.9-0.6,1.3-0.9
	c0.1-0.1,0.3-0.3,0.5-0.5c0.2-0.2,0.3-0.4,0.5-0.6c0.4-0.6,0.8-1.1,1.2-1.6c0.4-0.6,0.8-1.2,1.1-1.8c0.1-0.2,0.3-0.4,0.4-0.7
	C382.6,63.6,382.7,63.3,382.9,63.2L382.9,63.2z M391.2,4.5c0,0.4,0,0.8,0.1,1.2c0.1,0.4,0.1,0.9,0,1.3c-0.1,0.7-0.1,1.4-0.2,2
	c-0.1,0.7-0.1,1.3,0,2c0,0.3,0,0.6-0.1,0.9c-0.1,0.3-0.2,0.6-0.2,0.9c0,0.3,0,0.6,0,0.9c0,0.3-0.1,0.6-0.2,0.8
	c-0.4,0.1-0.9,0-1.2-0.3c0-1.1,0-2.4,0.1-3.8c0.1-1.4,0.1-2.7,0-4c-1.1-0.1-2.1-0.8-2.6-1.8c-0.7,0.1-1.4,0.2-2.1,0.2
	c-0.6,0-1.3,0.2-1.8,0.6c-0.6,0.6-1.4,1.1-2.3,1.3c-0.8,0.3-1.6,0-2.1-0.7c-0.1-1,0.6-1.9,1.5-2c0.1,0,0.1,0,0.2,0
	c0.4-0.2,0.9-0.3,1.3-0.3c0.1,0,0.3,0,0.4,0c0.5,0.1,0.9,0.1,1.4,0c0.4-0.2,0.8-0.1,1.2,0c0.6,0.1,1.3,0.1,1.9-0.1
	c0.6-0.2,1.3-0.2,2-0.1c0.6,0.1,1.2,0.1,1.8,0.2C390.7,3.7,391.1,4,391.2,4.5L391.2,4.5z M389.6,15.3c0.7-0.1,1.1,0.2,1.3,1
	c0.2,0.6,0.1,1.3-0.3,1.9c-0.4,0.3-0.9,0.3-1.2,0c-0.3-0.4-0.4-0.9-0.2-1.4C389.4,16.2,389.5,15.7,389.6,15.3z"/>
<path id="f" class="st0" d="M30.6,109.3H16.6l-2.6,15H6.5l6.4-36.8h23.3l-1.1,6.2H19.3l-1.6,9.5h14.1L30.6,109.3z"/>
<path id="l" class="st0" d="M53.1,118.2h15.6l-1.1,6.1h-23L51,87.5h7.4L53.1,118.2z"/>
<path id="a" class="st0" d="M104.6,116.8H91.7l-3.8,7.6h-8.2l19.7-36.8h6.8l7,36.8h-7.6L104.6,116.8z M94.8,110.6h8.9l-2.1-13.7
	L94.8,110.6z"/>
<path id="s" class="st0" d="M147.6,114.5c0.4-2-0.6-3.5-3-4.6l-4.9-2c-5.7-2.5-8.4-6-8.1-10.4c0.1-2,0.8-3.9,2-5.5
	c1.4-1.7,3.2-3,5.2-3.7c2.3-0.9,4.7-1.4,7.2-1.3c3.2-0.1,6.3,1.1,8.6,3.2c2.2,2.1,3.4,5.1,3.2,8.2h-7.3c0.2-1.4-0.2-2.8-1.1-3.9
	c-1-1-2.5-1.5-3.9-1.4c-1.5-0.1-3.1,0.3-4.4,1.2c-1.2,0.7-2,1.9-2.2,3.3c-0.3,1.8,0.9,3.3,3.7,4.4l3.3,1.3l1.9,0.9
	c5,2.5,7.3,5.9,7,10.4c-0.1,2-0.8,4-2.1,5.6c-1.3,1.6-3.1,2.9-5.1,3.6c-2.2,0.9-4.6,1.3-7,1.2c-2.4,0-4.8-0.6-7-1.6
	c-2-1-3.6-2.5-4.7-4.4c-1-1.9-1.5-4-1.4-6.1h7.4c-0.2,4,1.7,6,5.9,6.1c1.6,0.1,3.1-0.4,4.4-1.2C146.6,116.9,147.4,115.8,147.6,114.5
	z"/>
<path id="h" class="st0" d="M198,124.3h-7.4l2.7-15.8H179l-2.8,15.8h-7.4l6.4-36.8h7.4l-2.6,14.9h14.3l2.6-14.9h7.4L198,124.3z"/>
<path id="b" class="st0" d="M214.9,124.3l6.4-36.8h11.5c4.3,0,7.5,0.9,9.6,2.6c2.2,1.8,3.3,4.5,2.9,7.3c-0.2,3.7-2.4,6.4-6.4,8.2
	c1.5,0.5,2.7,1.5,3.4,2.8c0.8,1.5,1.2,3.2,1,4.9c-0.1,3.2-1.6,6.1-4.1,8.1c-2.5,1.9-5.9,2.9-10.2,2.9L214.9,124.3z M225.2,108.3
	l-1.7,9.9h5.8c1.6,0.1,3.2-0.4,4.6-1.4c1.2-0.9,2-2.2,2.2-3.6c0.3-1.2,0.1-2.5-0.6-3.6c-0.8-0.9-2-1.4-3.3-1.4L225.2,108.3z
	 M226.1,103h5c1.6,0,3.2-0.4,4.6-1.3c1.2-0.8,2-2.1,2.1-3.5c0.4-3-1.1-4.5-4.7-4.5h-5.5L226.1,103z"/>
<path id="a_1_" class="st0" d="M279.2,116.8h-12.8l-3.8,7.6h-8.2l19.7-36.8h6.8l7,36.8h-7.6L279.2,116.8z M269.4,110.6h8.9
	l-2.1-13.7L269.4,110.6z"/>
<path id="c" class="st0" d="M331.5,112.1c-0.3,2.4-1.2,4.8-2.6,6.8c-1.5,2-3.4,3.5-5.7,4.5c-2.4,1.1-4.9,1.6-7.5,1.5
	c-2.2,0-4.4-0.6-6.4-1.7c-1.8-1.1-3.3-2.7-4.3-4.6c-1.1-2.2-1.7-4.6-1.8-7c-0.1-2.6,0.1-5.2,0.7-7.7c0.5-2.9,1.5-5.7,2.9-8.2
	c1.3-2.2,3-4.2,5-5.7c2.7-2,6-2.9,9.3-2.8c3.4-0.1,6.7,1.2,9.1,3.5c2.2,2.3,3.5,5.5,3.7,9.5l-7.4,0c0-2.3-0.5-4-1.4-5.1
	c-1.1-1.2-2.7-1.8-4.3-1.7c-2.4-0.1-4.7,0.9-6.2,2.7c-1.6,1.9-2.7,4.6-3.3,8.3c-0.5,2.6-0.7,5.3-0.7,7.9c-0.1,1.8,0.5,3.5,1.5,4.9
	c1,1.1,2.4,1.7,3.8,1.6c1.9,0.2,3.9-0.4,5.4-1.6c1.4-1.3,2.4-3.1,2.7-5L331.5,112.1z"/>
<path id="k_1_" class="st0" d="M359,109.7l-4.8,4.5l-1.8,10.2H345l6.4-36.8h7.4l-2.8,16.2l3.8-4.2l11.1-12h9.7l-15.9,16.7l9.5,20.1
	h-8.4L359,109.7z"/>
</svg>
